<svg width="249" height="239" viewBox="0 0 249 239" fill="none" xmlns="http://www.w3.org/2000/svg">
<g clip-path="url(#clip0_72_799)" filter="url(#filter0_d_72_799)">
<path d="M67.1711 59.4975L100.683 111.201L102.789 110.344L69.2208 58.7478L67.1711 59.4975Z" fill="#3B7CD3"/>
<path d="M100.603 111.447L100.515 111.308L66.8679 59.397L69.3006 58.508L69.388 58.6395L103.083 110.439L100.603 111.447V111.447ZM67.4737 59.6091L100.758 110.961L102.489 110.26L69.1364 58.9909L67.4737 59.6091V59.6091Z" fill="#3B7CD3"/>
<path d="M69.2217 58.7474L70.9843 58.0294L104.126 109.03L102.79 110.342L69.2226 58.7465L69.2217 58.7474Z" fill="#DEECFF"/>
<path d="M102.753 110.658L68.9219 58.6561L71.0627 57.7824L71.1501 57.9216L104.383 109.064L102.752 110.658H102.753ZM69.52 58.8433L102.82 110.032L103.869 109.003L70.9072 58.2768L69.52 58.8433V58.8433Z" fill="#3B7CD3"/>
<path d="M60.6469 24.8008C50.0042 8.99031 36.9086 -0.819121 31.402 2.86925C25.8953 6.55763 30.0579 22.4084 40.7055 38.2151C51.352 54.0217 64.4437 63.8398 69.9504 60.1264C75.458 56.4141 71.2742 40.6113 60.6469 24.8008V24.8008ZM67.9401 54.0419C65.711 55.6365 52.8986 46.2821 44.5964 33.9488C36.2942 21.6155 33.1319 8.63126 35.5646 6.88884C37.9973 5.14641 49.8122 12.7104 58.1144 25.0446C66.4166 37.3779 71.8714 51.2271 67.92 54.0428H67.9401V54.0419Z" fill="#3B7CD3"/>
<path d="M67.1308 61.1285C64.4831 61.1285 61.05 59.6136 57.114 56.6664C51.5709 52.5153 45.6773 46.0073 40.5173 38.3435C29.8275 22.4649 25.6802 6.48642 31.2704 2.71837C36.8606 -1.04969 50.1078 8.81542 60.7784 24.6902C71.4489 40.565 75.6163 56.5435 70.0252 60.3116C69.1641 60.8684 68.1551 61.1535 67.1298 61.1285H67.1308ZM34.2013 2.29116C33.2432 2.26716 32.3005 2.53116 31.4941 3.04861C26.0825 6.69379 30.2979 22.4246 40.8494 38.1199C45.9855 45.7481 51.8473 52.2196 57.354 56.3467C62.8606 60.4738 67.2316 61.7218 69.8236 59.9794C75.2266 56.3342 71.0198 40.6034 60.4644 24.912C51.3885 11.4315 40.5182 2.29116 34.2013 2.29116ZM67.2469 54.4132C67.0732 54.4123 66.8994 54.3959 66.7285 54.3652C62.805 53.6519 51.903 45.1942 44.3976 34.06C35.9437 21.5068 32.9255 8.53893 35.433 6.72547C35.8314 6.44226 36.4142 6.37026 37.1879 6.51042C41.219 7.22467 51.0448 14.1982 58.2708 24.9331C66.3733 36.9678 72.2275 51.2077 68.0246 54.202C67.7942 54.3518 67.5215 54.4257 67.2469 54.4132ZM36.5025 6.84163C36.2135 6.82339 35.9265 6.89635 35.6807 7.04899C33.3517 8.7319 36.5543 21.6758 44.7404 33.8372C52.1776 44.8832 62.9394 53.2689 66.7996 53.9707C67.1337 54.0686 67.4937 54.0359 67.8047 53.8785C71.3414 51.3623 66.9234 38.4789 57.9511 25.1683C50.7731 14.5256 41.0913 7.62308 37.1274 6.91267C36.921 6.87139 36.7118 6.84643 36.5015 6.84067L36.5025 6.84163Z" fill="#3B7CD3"/>
<g opacity="0.5">
<path d="M68.0959 60.929L100.683 111.2L102.788 110.343L70.1216 60.135L68.0959 60.929V60.929Z" fill="#3B7CD3"/>
<path d="M100.682 111.401C100.649 111.401 100.616 111.392 100.587 111.376C100.557 111.36 100.532 111.337 100.515 111.309L67.9284 61.0376C67.9121 61.0127 67.9025 60.9848 67.8987 60.956C67.8948 60.9272 67.8987 60.8975 67.9083 60.8696C67.9169 60.8408 67.9313 60.8149 67.9515 60.7928C67.9716 60.7707 67.9966 60.7534 68.0245 60.7429L70.0462 59.9451C70.0894 59.9298 70.1365 59.9288 70.1806 59.9422C70.2248 59.9557 70.2632 59.9835 70.2901 60.021L102.952 110.233C102.97 110.256 102.98 110.283 102.985 110.313C102.989 110.342 102.986 110.372 102.976 110.4C102.968 110.428 102.953 110.453 102.932 110.475C102.913 110.497 102.888 110.513 102.86 110.523L100.755 111.381C100.733 111.393 100.708 111.4 100.683 111.401H100.682ZM68.3989 61.0175L100.758 110.946L102.489 110.244L70.0414 60.379L68.3989 61.0175V61.0175Z" fill="#3B7CD3"/>
</g>
<g opacity="0.5">
<path d="M60.6488 24.8008C50.0052 8.99028 36.9106 -0.819152 31.403 2.86922C25.8963 6.5576 30.0589 22.4084 40.7055 38.215C51.3521 54.0217 64.4438 63.8397 69.9504 60.1274C75.4571 56.415 71.2743 40.6122 60.6479 24.8008H60.6488ZM67.9421 54.0418C65.7129 55.6364 52.9006 46.282 44.5984 33.9487C36.2962 21.6154 33.1339 8.63123 35.5665 6.88881C37.9992 5.14638 49.8141 12.7103 58.1163 25.0446C66.4185 37.3779 71.8733 51.2271 67.9219 54.0428H67.9421V54.0418Z" fill="#3B7CD3"/>
<path d="M67.1315 61.1276C64.4838 61.1276 61.0508 59.6127 57.1147 56.6655C51.5716 52.5144 45.6781 46.0065 40.518 38.3427C29.8282 22.464 25.681 6.48554 31.2711 2.71748C36.8613 -1.05058 50.1085 8.81453 60.7791 24.6893C71.4497 40.5641 75.6171 56.5426 70.026 60.3107C69.1648 60.8675 68.1558 61.1526 67.1306 61.1276H67.1315ZM34.2021 2.29027C33.244 2.26627 32.3012 2.53028 31.4948 3.04773C26.0832 6.6929 30.2986 22.4237 40.8502 38.119C45.9862 45.7472 51.8481 52.2187 57.3547 56.3458C62.8614 60.4729 67.2323 61.7209 69.8244 59.9785C75.2273 56.3333 71.0205 40.6025 60.4652 24.9111C51.3892 11.4306 40.5189 2.29027 34.2021 2.29027ZM67.2477 54.4123C67.0739 54.4114 66.9001 54.3951 66.7293 54.3643C62.8057 53.651 51.9038 45.1933 44.3984 34.0591C35.9445 21.5059 32.9262 8.53805 35.4338 6.72458C35.8322 6.44138 36.4149 6.36938 37.1887 6.50954C41.2198 7.22379 51.0455 14.1973 58.2715 24.9322C66.3741 36.967 72.2282 51.2069 68.0253 54.2011C67.7949 54.3509 67.5222 54.4248 67.2477 54.4123ZM36.5032 6.84074C36.2142 6.8225 35.9272 6.89546 35.6814 7.04811C33.3524 8.73101 36.555 21.6749 44.7411 33.8363C52.1783 44.8823 62.9401 53.268 66.8003 53.9698C67.1344 54.0677 67.4944 54.0351 67.8054 53.8776C71.3421 51.3614 66.9242 38.478 57.9519 25.1674C50.7738 14.5247 41.0921 7.62219 37.1282 6.91178C36.9218 6.8705 36.7125 6.84554 36.5022 6.83978L36.5032 6.84074Z" fill="#3B7CD3"/>
</g>
<path d="M64.7036 55.7291C59.364 56.4146 52.1226 49.1933 44.646 39.6393C35.6065 28.0749 33.1018 19.382 32.2849 13.764C31.4679 8.146 35.571 6.88934 35.571 6.88934C33.1546 8.63177 36.2766 21.6198 44.5826 33.9493C52.8887 46.2787 65.6972 55.6254 67.9263 54.0424C68.5964 53.5633 68.9948 52.7704 69.159 51.7172L69.2387 51.8286C69.2387 51.8286 70.0441 55.0341 64.7045 55.7282L64.7036 55.7291Z" fill="#DEECFF"/>
<path d="M63.973 55.9755C59.339 55.9755 53.1152 50.7914 44.4857 39.758C37.3681 30.6666 33.3207 22.1724 32.0804 13.7905C31.2432 8.07654 35.4615 6.70852 35.5057 6.697L36.6577 6.3418L35.6804 7.04741C33.3514 8.73031 36.554 21.6742 44.7401 33.8366C52.1773 44.8825 62.9391 53.2683 66.7993 53.97C67.1334 54.068 67.4934 54.0353 67.8044 53.8788C68.4102 53.4478 68.7971 52.7105 68.9526 51.6852L69.0246 51.2148L69.423 51.7774C69.4941 52.146 69.4893 52.5243 69.4105 52.891C69.3318 53.2577 69.1801 53.6043 68.9641 53.9105C68.2345 54.979 66.807 55.6568 64.7209 55.9285C64.4722 55.9601 64.2216 55.9765 63.9711 55.9765L63.973 55.9755ZM34.9402 7.39109C33.8478 8.01702 31.8893 9.72393 32.4759 13.7358C33.6961 22.0419 37.7272 30.4833 44.8015 39.5151C53.8093 51.0276 60.1301 56.1195 64.6757 55.5329C66.638 55.2776 67.9695 54.6593 68.6358 53.6945C68.7433 53.5361 68.8326 53.3662 68.9027 53.1886C68.7001 53.5918 68.4016 53.9393 68.0329 54.2014C67.8371 54.3128 67.6211 54.3848 67.3974 54.4126C67.1737 54.4404 66.9462 54.4241 66.7292 54.3646C62.8056 53.6503 51.9037 45.1936 44.3983 34.0593C36.65 22.5353 33.4724 10.6599 34.9402 7.39013V7.39109Z" fill="#3B7CD3"/>
<path d="M70.9715 59.6969C70.7199 59.8034 70.4598 59.8898 70.1939 59.9522C73.9504 54.8997 70.4694 39.4204 60.6235 24.8013C50.1008 9.17033 37.1847 -0.595901 31.5706 2.76991C31.9997 2.15166 32.5402 1.61789 33.1651 1.19837C39.6884 -3.11594 52.4173 6.78085 62.9765 22.767C73.5357 38.7532 79.6241 55.4776 70.9715 59.6959V59.6969Z" fill="#DEECFF"/>
<path d="M69.7549 60.2188L70.0343 59.8204C73.5671 55.0712 70.5642 39.902 60.4639 24.9009C50.0967 9.48879 37.1768 -0.364805 31.674 2.92517L30.8762 3.41573L31.4263 2.61796C31.8775 1.98819 32.441 1.4477 33.0891 1.02338C39.4693 -3.18725 52.1098 5.90793 63.1797 22.6477C72.3076 36.4489 76.6891 48.5671 74.9111 55.1029C74.6654 56.1311 74.193 57.0921 73.5297 57.9148C72.8663 58.7375 72.0272 59.4028 71.0749 59.8607L70.9875 59.6812L71.0749 59.8607C70.8042 59.9788 70.5248 60.0719 70.2378 60.1401L69.7549 60.2198V60.2188ZM34.2056 1.89987C40.7135 1.89987 51.5799 10.9998 60.7951 24.6887C65.4329 31.5787 68.9533 39.1196 70.7043 45.9146C72.2711 51.9953 72.2519 56.9289 70.6688 59.6006L70.8839 59.5171C71.7844 59.0803 72.5764 58.4486 73.2033 57.669C73.8311 56.8895 74.2775 55.9804 74.5118 55.0069C76.259 48.5988 71.8967 36.5881 62.8322 22.8791C51.8871 6.33418 39.4655 -2.713 33.2926 1.34594C32.9268 1.58882 32.5898 1.87203 32.2874 2.19171C32.9047 1.98435 33.5537 1.88547 34.2056 1.90083V1.89987Z" fill="#3B7CD3"/>
<path d="M110.461 40.9269V41.9118C110.461 42.5695 109.081 42.965 109.081 42.965L106.106 42.3871L102.916 44.4808L94.7529 40.2059C93.7554 39.9688 92.8194 39.5243 92.0053 38.9012C91.1902 38.2792 90.5154 37.4929 90.0238 36.5924C88.3169 33.506 91.9938 32.1303 91.9938 32.1303C91.9938 32.1303 91.3362 30.8822 92.9788 29.1715C93.3896 28.6924 93.9512 28.367 94.5714 28.2489C95.1916 28.1299 95.8329 28.2249 96.3926 28.5177C96.3926 28.5177 97.3766 26.4124 101.118 26.3481C104.858 26.2847 104.271 30.8822 104.271 30.8822C104.825 30.4829 105.472 30.2313 106.15 30.1517C106.828 30.071 107.515 30.1651 108.148 30.4234C110.249 31.3402 109.065 34.6897 109.065 34.6897C109.065 34.6897 111.23 34.8173 112.218 37.4487C113.208 40.0801 110.461 40.9259 110.461 40.9259V40.9269Z" fill="#5E96FC"/>
<path d="M102.915 44.6679C102.883 44.6679 102.852 44.6602 102.823 44.6439L94.7005 40.3968C93.679 40.1539 92.7209 39.6989 91.8876 39.0605C91.0543 38.4221 90.3641 37.6157 89.8639 36.6921C89.6239 36.3168 89.4713 35.8924 89.4156 35.4499C89.3609 35.0073 89.405 34.559 89.5452 34.1356C89.9993 32.9116 91.2751 32.2377 91.7542 32.0178C91.6227 31.5752 91.4911 30.4424 92.8505 29.0312C93.2681 28.5445 93.8307 28.2037 94.4557 28.0606C95.0806 27.9176 95.7354 27.9781 96.3239 28.2334C96.6627 27.7073 97.9184 26.1838 101.133 26.1281C101.582 26.0955 102.033 26.1636 102.453 26.3278C102.872 26.492 103.249 26.7483 103.558 27.0776C104.491 28.1221 104.546 29.7253 104.519 30.4751C105.075 30.1419 105.702 29.9451 106.35 29.9C106.997 29.8559 107.645 29.9653 108.242 30.2197C110.177 31.0655 109.579 33.7007 109.344 34.5062C109.966 34.6262 111.588 35.1446 112.421 37.3574C112.575 37.703 112.655 38.0774 112.655 38.4557C112.655 38.8339 112.575 39.2083 112.421 39.5539C112.035 40.2432 111.416 40.7722 110.675 41.0448V41.8906C110.675 42.6884 109.307 43.0868 109.152 43.1348C109.122 43.1425 109.09 43.1425 109.06 43.1348L106.141 42.5722L103.043 44.666C103.002 44.6785 102.957 44.6785 102.915 44.666V44.6679ZM95.096 28.3784C94.7206 28.3851 94.351 28.4715 94.0112 28.6299C93.6713 28.7883 93.368 29.0168 93.1212 29.3C91.6102 30.8706 92.1449 31.9794 92.1689 32.0274C92.1814 32.0524 92.1881 32.0812 92.1881 32.109C92.1881 32.1369 92.1814 32.1657 92.1689 32.1906C92.1593 32.2165 92.143 32.2405 92.1238 32.2597C92.1036 32.2789 92.0796 32.2933 92.0528 32.3029C92.0528 32.3029 90.3823 32.949 89.8956 34.269C89.7775 34.6377 89.743 35.0265 89.7929 35.4105C89.8438 35.7936 89.9782 36.1612 90.1865 36.4867C90.6665 37.3584 91.3222 38.1206 92.1123 38.7254C92.9024 39.3302 93.8096 39.7642 94.7763 39.9994L94.8368 40.0195L102.915 44.2705L105.97 42.2448C105.991 42.2304 106.015 42.2199 106.04 42.2141C106.066 42.2084 106.092 42.2084 106.117 42.2132L109.068 42.7834C109.466 42.6519 110.264 42.3053 110.264 41.9338V40.9488C110.264 40.9066 110.278 40.8643 110.303 40.8298C110.328 40.7952 110.363 40.7703 110.404 40.7568C111.097 40.5235 111.682 40.0483 112.051 39.4166C112.182 39.121 112.251 38.8013 112.251 38.4777C112.251 38.1542 112.182 37.8345 112.051 37.5389C111.125 35.0707 109.155 34.9151 109.072 34.9113C109.041 34.9103 109.011 34.9017 108.985 34.8863C108.959 34.871 108.937 34.8499 108.92 34.8239C108.903 34.799 108.892 34.7692 108.889 34.7395C108.884 34.7087 108.887 34.678 108.896 34.6492C108.896 34.6175 109.994 31.4591 108.099 30.6258C107.499 30.3858 106.849 30.2994 106.207 30.3752C105.566 30.4511 104.953 30.6863 104.426 31.0607C104.394 31.0828 104.354 31.0952 104.315 31.0952C104.276 31.0952 104.236 31.0837 104.204 31.0607C104.17 31.0415 104.143 31.0127 104.126 30.9772C104.109 30.9426 104.102 30.9032 104.108 30.8648C104.108 30.8408 104.378 28.604 103.274 27.3713C103.003 27.0862 102.672 26.8654 102.306 26.7243C101.938 26.5832 101.544 26.5246 101.153 26.5544C97.5959 26.6139 96.6109 28.5877 96.6032 28.6078C96.5907 28.6328 96.5735 28.6549 96.5523 28.6731C96.5312 28.6914 96.5063 28.7038 96.4794 28.7115C96.4544 28.7221 96.4266 28.7278 96.3997 28.7278C96.3728 28.7278 96.345 28.7221 96.32 28.7115C95.9514 28.5032 95.5347 28.3938 95.1114 28.3928L95.096 28.3813V28.3784Z" fill="#5E96FC"/>
<path d="M110.461 40.9274V41.9124C110.461 42.57 108.885 43.1403 108.885 43.1403L106.094 42.3866C106.094 42.3866 108.231 42.0199 108.809 41.6494C108.987 41.513 109.13 41.3374 109.227 41.1358C109.324 40.9341 109.373 40.7124 109.368 40.4887C110.16 39.7284 110.724 38.7616 110.994 37.697C111.314 36.1024 109.093 34.6902 109.093 34.6902C109.093 34.6902 111.257 34.8179 112.247 37.4493C113.236 40.0807 110.461 40.9265 110.461 40.9265V40.9274Z" fill="#3B7CD3"/>
<path d="M95.3394 40.3164C95.3394 40.3164 91.4436 38.55 92.8913 35.9541C93.9157 34.1157 94.4379 38.1189 95.7378 38.4021C97.0386 38.6853 96.3359 40.0332 96.3359 40.0332L95.3394 40.3164Z" fill="#3B7CD3"/>
<path d="M114.021 55.3182C110.727 57.1643 107.828 53.7706 107.828 53.7706C107.708 53.0305 107.548 52.297 107.35 51.5732C107.063 50.5364 106.645 49.3882 106.082 48.7344C105.584 48.1478 104.941 48.072 104.199 48.2237C103.164 48.431 101.927 49.0848 100.587 49.4199C98.2905 50.018 97.4409 46.2739 96.9983 45.3763C96.5557 44.4787 95.7503 44.9779 94.5618 43.678C93.3733 42.3782 95.252 38.0955 95.252 38.0955C95.5823 38.3269 95.9365 38.5237 96.3081 38.6821C97.1058 39.0805 99.7459 37.3419 100.794 37.4418C101.844 37.5416 102.094 42.3868 102.992 42.2265C103.889 42.0671 102.712 40.2325 102.96 39.0882C103.207 37.9438 105.899 36.3406 107.39 37.892C109.878 40.4716 107.39 42.6335 107.39 42.6335L116.924 45.8236C116.924 45.8236 118.894 52.5869 114.021 55.3182V55.3182Z" fill="#DEECFF"/>
<path d="M111.999 56.064C109.559 56.064 107.696 53.927 107.676 53.8992C107.652 53.8704 107.636 53.8368 107.629 53.7993C107.51 53.0669 107.352 52.3411 107.154 51.6259V51.598C106.935 50.6121 106.519 49.6809 105.934 48.8582C105.535 48.3916 105.017 48.2524 104.239 48.4117C103.652 48.5538 103.078 48.743 102.521 48.9782C101.906 49.2278 101.278 49.4409 100.638 49.6166C98.5731 50.1551 97.6074 47.5554 97.089 46.1557C96.9814 45.8687 96.8902 45.621 96.8144 45.4703C96.7328 45.3195 96.6195 45.189 96.4813 45.0872C96.344 44.9855 96.1846 44.9163 96.0166 44.8837C95.3907 44.6821 94.831 44.3144 94.398 43.819C93.1299 42.4395 94.9721 38.1924 95.0518 38.0129C95.0633 37.9841 95.0825 37.9591 95.1056 37.9389C95.1296 37.9188 95.1574 37.9044 95.1872 37.8967C95.2169 37.89 95.2477 37.89 95.2774 37.8967C95.3072 37.9034 95.335 37.9169 95.359 37.9361C95.6777 38.1569 96.0186 38.345 96.3757 38.4986C96.7309 38.6657 97.7034 38.2596 98.5607 37.9005C99.418 37.5415 100.255 37.1911 100.794 37.2391C101.471 37.3025 101.799 38.5946 102.145 39.9627C102.329 40.6923 102.672 42.0401 102.943 42.0401C102.97 42.0392 102.997 42.0315 103.02 42.018C103.044 42.0046 103.064 41.9864 103.078 41.9643C103.195 41.7924 103.078 41.2827 102.947 40.8315C102.752 40.2603 102.686 39.6526 102.752 39.0526C102.911 38.3105 103.884 37.4858 104.969 37.1786C105.405 37.025 105.875 36.9981 106.326 37.1009C106.776 37.2036 107.189 37.4301 107.517 37.7565C107.882 38.0926 108.175 38.5015 108.375 38.9566C108.575 39.4116 108.677 39.9031 108.677 40.4004C108.619 41.202 108.288 41.9604 107.74 42.5499L116.972 45.6363C117.003 45.6469 117.029 45.6651 117.052 45.6882C117.075 45.7122 117.091 45.741 117.1 45.7717C117.124 45.8399 119.065 52.7145 114.112 55.4938C113.469 55.8624 112.741 56.0583 111.999 56.064V56.064ZM108.011 53.6717C108.362 54.0701 110.962 56.7898 113.917 55.1309C118.279 52.6867 116.959 46.8085 116.744 45.9599L107.302 42.8254C107.267 42.8158 107.236 42.7966 107.213 42.7697C107.189 42.7438 107.172 42.7112 107.165 42.6766C107.159 42.6421 107.161 42.6056 107.173 42.572C107.185 42.5384 107.207 42.5086 107.233 42.4865C107.824 41.9326 108.191 41.1828 108.266 40.3774C108.264 39.9358 108.168 39.4999 107.988 39.0967C107.808 38.6935 107.545 38.3326 107.218 38.0359C106.938 37.7652 106.588 37.578 106.208 37.4954C105.828 37.4129 105.431 37.4369 105.065 37.5655C104.048 37.8525 103.243 38.61 103.126 39.1409C103.081 39.6804 103.148 40.2228 103.322 40.7355C103.478 41.3412 103.609 41.8635 103.402 42.187C103.357 42.2542 103.298 42.3118 103.229 42.3541C103.161 42.3963 103.083 42.4241 103.003 42.4337C102.381 42.5297 102.106 41.4449 101.755 40.0654C101.516 39.1121 101.149 37.673 100.754 37.6404C100.359 37.6087 99.5015 37.9389 98.7124 38.2702C97.6832 38.6964 96.7184 39.1034 96.2 38.8606C95.8976 38.7223 95.6029 38.5668 95.3187 38.394C94.7801 39.6977 93.8316 42.6209 94.6851 43.5502C95.0758 43.9995 95.5837 44.3317 96.152 44.5112C96.367 44.563 96.5677 44.661 96.7414 44.7992C96.9142 44.9375 97.0544 45.1112 97.1533 45.309C97.2368 45.476 97.329 45.7074 97.4442 46.0309C97.9549 47.4028 98.8036 49.6914 100.523 49.2489C101.147 49.0732 101.76 48.863 102.361 48.6191C102.94 48.3772 103.537 48.1833 104.147 48.0373C104.512 47.925 104.901 47.9193 105.268 48.021C105.636 48.1228 105.966 48.3282 106.221 48.6114C106.711 49.1855 107.15 50.1667 107.529 51.5308V51.5587C107.82 52.5475 107.976 53.4403 108.016 53.6841L108.011 53.6726V53.6717Z" fill="#3B7CD3"/>
<path d="M103.744 40.4958C103.692 40.4958 103.641 40.4747 103.603 40.4372C103.566 40.3998 103.545 40.3489 103.545 40.2961C103.545 40.2241 103.576 38.5057 104.965 38.139C105.259 38.0305 105.581 38.0238 105.879 38.1198C106.178 38.2158 106.435 38.4087 106.611 38.6689C106.623 38.6919 106.632 38.7169 106.635 38.7428C106.638 38.7687 106.635 38.7956 106.627 38.8206C106.621 38.8455 106.608 38.8695 106.592 38.8897C106.575 38.9099 106.554 38.9271 106.531 38.9396C106.508 38.9521 106.483 38.9598 106.457 38.9626C106.431 38.9655 106.405 38.9627 106.38 38.9559C106.355 38.9483 106.331 38.9367 106.31 38.9195C106.29 38.9031 106.273 38.883 106.261 38.8599C106.261 38.8398 105.926 38.2935 105.064 38.521C103.972 38.8119 103.944 40.2836 103.944 40.3C103.944 40.3259 103.938 40.3518 103.929 40.3758C103.918 40.3998 103.904 40.4219 103.885 40.4401C103.866 40.4584 103.844 40.4728 103.82 40.4824C103.796 40.492 103.77 40.4968 103.744 40.4958V40.4958Z" fill="#3B7CD3"/>
<path d="M105.622 40.6801H105.583C105.328 40.6148 105.088 40.4996 104.877 40.3412C104.542 40.0897 104.793 39.7508 104.941 39.5434C105.066 39.4013 105.156 39.2324 105.204 39.049C105.204 39.001 105.204 38.9809 105.185 38.9693C104.994 38.8657 104.776 38.8282 104.562 38.8618C104.51 38.8657 104.458 38.8484 104.417 38.8157C104.376 38.7821 104.349 38.7351 104.343 38.6823C104.338 38.6295 104.354 38.5767 104.388 38.5364C104.421 38.4951 104.469 38.4692 104.522 38.4634C104.858 38.4164 105.199 38.4989 105.475 38.6948C105.524 38.7476 105.562 38.8109 105.583 38.8801C105.605 38.9492 105.61 39.0221 105.599 39.0941C105.545 39.3418 105.429 39.5722 105.264 39.7642C105.201 39.8381 105.15 39.9217 105.113 40.0119C105.28 40.131 105.468 40.2193 105.666 40.2711C105.719 40.2769 105.768 40.3038 105.801 40.345C105.834 40.3863 105.85 40.4391 105.844 40.4919C105.838 40.5447 105.811 40.5937 105.77 40.6263C105.729 40.6599 105.676 40.6753 105.622 40.6695V40.681V40.6801Z" fill="#3B7CD3"/>
<path d="M98.529 46.4896C98.4234 46.4915 98.3178 46.481 98.2141 46.4579C98.1623 46.4445 98.1181 46.4119 98.0903 46.3667C98.0634 46.3216 98.0547 46.2669 98.0663 46.2151C98.073 46.1891 98.0845 46.1661 98.0999 46.145C98.1162 46.1239 98.1354 46.1066 98.1584 46.0931C98.1805 46.0797 98.2055 46.0711 98.2323 46.0672C98.2583 46.0634 98.2842 46.0653 98.3101 46.072C98.5424 46.1075 98.7805 46.0903 99.0052 46.0211C99.2298 45.952 99.4372 45.833 99.61 45.6736C100.236 45.1389 99.8135 43.8313 99.8087 43.8198C99.7924 43.7699 99.7962 43.7161 99.8192 43.6691C99.8423 43.6221 99.8836 43.5865 99.9325 43.5683C99.9575 43.5597 99.9844 43.5558 100.011 43.5577C100.037 43.5597 100.063 43.5664 100.087 43.5789C100.111 43.5913 100.132 43.6077 100.149 43.6278C100.167 43.648 100.18 43.671 100.188 43.6969C100.208 43.7603 100.699 45.2723 99.8692 45.9779C99.4986 46.3043 99.0224 46.4877 98.529 46.4925V46.4896Z" fill="#3B7CD3"/>
<path d="M97.0184 41.4571C97.2891 41.4571 97.509 41.2373 97.509 40.9666C97.509 40.6959 97.2891 40.476 97.0184 40.476C96.7477 40.476 96.5278 40.6959 96.5278 40.9666C96.5278 41.2373 96.7477 41.4571 97.0184 41.4571Z" fill="#3B7CD3"/>
<path d="M107.765 45.0218C107.765 45.0218 107.948 47.0513 107.948 48.523C107.922 49.484 107.774 50.4382 107.506 51.3617C107.272 50.3547 106.838 49.4052 106.23 48.571C105.995 48.3022 105.688 48.1044 105.347 48.0007C105.005 47.898 104.64 47.8932 104.295 47.9882C104.295 47.9882 105.891 47.5658 106.728 46.553C107.146 46.0951 107.494 45.5796 107.765 45.0218V45.0218Z" fill="#3B7CD3"/>
<path d="M154.459 45.8843C154.459 45.8843 163.451 47.4117 170.84 59.2352C178.229 71.0587 180.809 85.0193 180.809 85.0193L151.253 71.5733L154.459 45.8852V45.8843Z" fill="#DEECFF"/>
<path d="M180.817 85.2177C180.79 85.2225 180.761 85.2225 180.733 85.2177L151.166 71.7516C151.127 71.7353 151.094 71.7065 151.073 71.669C151.052 71.6326 151.044 71.5894 151.05 71.5481L154.24 45.86C154.244 45.8331 154.252 45.8072 154.266 45.7842C154.279 45.7611 154.297 45.741 154.32 45.7246C154.364 45.6939 154.418 45.6805 154.471 45.6891C154.563 45.6891 163.642 47.3682 170.992 59.1274C178.341 70.8866 180.961 84.8433 180.993 84.9825C180.998 85.019 180.994 85.0555 180.981 85.0891C180.969 85.1227 180.946 85.1524 180.917 85.1745C180.889 85.1985 180.854 85.2139 180.817 85.2187V85.2177ZM151.477 71.4521L180.542 84.6753C180.067 82.3626 177.28 69.9209 170.672 59.3377C164.066 48.7545 156.006 46.4418 154.631 46.1231L151.477 71.4521V71.4521Z" fill="#3B7CD3"/>
<path d="M105.093 75.1887C105.093 75.1887 103.203 80.2249 96.5276 78.5065C89.8527 76.788 74.2447 68.9361 72.3026 72.9797C70.7992 76.1218 73.7542 77.9679 73.7542 77.9679C73.7542 77.9679 71.7209 80.9113 72.0761 83.7578C72.4313 86.6052 77.9744 99.2697 83.6673 99.8562C85.8811 100.088 87.5073 100.402 92.8911 99.1785L95.0319 95.0427C95.0319 95.0427 96.6908 98.4757 97.4243 98.3212C106.704 96.3627 116.769 93.1092 118.619 91.3188C121.553 88.4791 121.757 85.433 121.757 85.433L105.093 75.1887Z" fill="#DEECFF"/>
<path d="M86.5671 100.271C85.7472 100.262 84.9283 100.207 84.1142 100.106L83.6438 100.055C77.7503 99.445 72.2033 86.4099 71.8769 83.7814C71.5582 81.245 73.053 78.6856 73.4715 78.0155C72.8494 77.5489 70.7681 75.7067 72.116 72.8958C73.5714 69.8611 81.8016 72.9668 89.0631 75.7105C91.9307 76.7953 94.6456 77.8158 96.5723 78.315C102.979 79.9653 104.822 75.3198 104.898 75.1249C104.908 75.0961 104.924 75.0711 104.945 75.05C104.966 75.0289 104.991 75.0135 105.02 75.0039C105.047 74.9943 105.077 74.9915 105.107 74.9943C105.136 74.9982 105.164 75.0087 105.189 75.0251L121.85 85.2694C121.881 85.2876 121.906 85.3145 121.923 85.3471C121.941 85.3798 121.947 85.4163 121.945 85.4527C121.945 85.5804 121.706 88.6064 118.754 91.4615C116.912 93.2442 107.163 96.4737 97.4652 98.5195C96.7432 98.6712 95.6229 96.6695 95.0286 95.4887L93.0664 99.2731C93.0529 99.299 93.0337 99.3211 93.0116 99.3384C92.9886 99.3566 92.9627 99.3691 92.9348 99.3768C89.8609 100.071 88.0109 100.271 86.5671 100.271V100.271ZM74.9231 72.0337C73.7067 72.0337 72.8341 72.3332 72.4827 73.0666C71.0753 76.0062 73.747 77.7246 73.8584 77.7966C73.8814 77.8101 73.9016 77.8283 73.9179 77.8504C73.9333 77.8725 73.9448 77.8974 73.9506 77.9233C73.9602 77.9781 73.9486 78.0337 73.9179 78.0789C73.9179 78.1077 71.9249 80.9983 72.2753 83.7334C72.6737 86.8563 78.2092 99.0897 83.688 99.66L84.1747 99.6965C86.1687 99.9115 87.8746 100.095 92.7678 98.9899L94.8693 94.9386C94.8856 94.907 94.9106 94.8801 94.9422 94.8609C94.973 94.8417 95.0085 94.8311 95.045 94.8311C95.0814 94.8311 95.117 94.8417 95.1486 94.8618C95.1794 94.881 95.2043 94.9098 95.2197 94.9425C96.0693 96.6974 97.086 98.1883 97.3893 98.1134C106.86 96.1195 116.717 92.8689 118.484 91.1629C120.098 89.671 121.175 87.6896 121.55 85.5238L105.201 75.4676C104.727 76.4363 102.453 80.2207 96.5003 78.6894C94.5506 78.1874 91.827 77.1582 88.9479 76.0696C84.0067 74.2235 78.1929 72.0337 74.9231 72.0337V72.0337Z" fill="#3B7CD3"/>
<path d="M208.156 168.977L216.351 173.101L233.287 168.977L232.305 154.447L219.545 151.109L208.156 168.977Z" fill="#DEECFF"/>
<path d="M79.6162 156.308L66.2576 168.131L94.889 202.692L109.794 186.785L79.6162 156.308V156.308Z" fill="#DEECFF"/>
<path d="M94.8885 202.891C94.8597 202.891 94.8318 202.884 94.8059 202.872C94.781 202.859 94.7579 202.841 94.7406 202.819L66.1101 168.258C66.0775 168.219 66.0612 168.168 66.065 168.117C66.0688 168.065 66.0919 168.017 66.1303 167.983L79.4889 156.156C79.5263 156.122 79.5753 156.103 79.6262 156.103C79.6771 156.103 79.727 156.122 79.7644 156.156L109.939 186.633C109.975 186.67 109.995 186.719 109.995 186.771C109.995 186.823 109.975 186.872 109.939 186.909L95.0363 202.815C95.019 202.837 94.996 202.855 94.971 202.868C94.9451 202.881 94.9173 202.889 94.8894 202.891H94.8885ZM66.5364 168.155L94.9 202.393L109.514 186.789L79.6079 156.579L66.5364 168.155V168.155Z" fill="#3B7CD3"/>
<path d="M93.0182 99.1307C92.9711 99.1327 92.9251 99.1173 92.8905 99.0866C92.8694 99.0703 92.8531 99.0501 92.8396 99.0271C92.8271 99.004 92.8195 98.9791 92.8175 98.9531C92.8147 98.9272 92.8175 98.9004 92.8252 98.8754C92.8329 98.8504 92.8454 98.8274 92.8627 98.8072C92.8857 98.7755 95.4585 95.5739 94.4572 93.3524C93.1497 90.3821 91.6338 90.7124 91.5705 90.7287C91.5186 90.7412 91.4639 90.7316 91.4188 90.7047C91.3727 90.6769 91.3401 90.6327 91.3266 90.5809C91.3209 90.5559 91.319 90.53 91.3228 90.5041C91.3266 90.4781 91.3353 90.4532 91.3487 90.4311C91.3622 90.409 91.3794 90.3898 91.4006 90.3745C91.4217 90.3591 91.4457 90.3476 91.4706 90.3418C91.5465 90.3217 93.3647 89.8868 94.8201 93.1892C95.9011 95.6373 93.2649 98.9195 93.1497 99.0587C93.1334 99.0789 93.1132 99.0952 93.0902 99.1077C93.0681 99.1202 93.0431 99.1279 93.0182 99.1307V99.1307Z" fill="#3B7CD3"/>
<path d="M86.8055 93.4594C86.7527 93.4661 86.6989 93.4517 86.6567 93.42C86.6144 93.3874 86.5876 93.3394 86.5799 93.2866C86.5732 93.2328 86.5876 93.18 86.6202 93.1378C86.6528 93.0955 86.7009 93.0677 86.7537 93.061C86.794 93.061 91.044 91.8648 91.8859 89.4283C92.2248 88.451 91.9656 87.3863 91.1236 86.2382C87.6234 81.5408 83.0816 84.2922 82.8896 84.4122C82.8675 84.4257 82.8426 84.4353 82.8166 84.4391C82.7907 84.4439 82.7648 84.4429 82.7389 84.4372C82.713 84.4314 82.689 84.4199 82.6678 84.4045C82.6467 84.3892 82.6285 84.37 82.615 84.3479C82.5872 84.3028 82.5786 84.249 82.591 84.1972C82.6026 84.1463 82.6342 84.1012 82.6784 84.0724C82.7302 84.0407 87.7223 81.0022 91.451 86.003C92.3765 87.2433 92.6472 88.4356 92.2689 89.5435C91.355 92.1835 87.0445 93.3797 86.8612 93.4277C86.8458 93.4431 86.8266 93.4536 86.8055 93.4594V93.4594Z" fill="#3B7CD3"/>
<path d="M87.2044 83.6262C87.164 83.6272 87.1247 83.6156 87.0911 83.5926C87.0575 83.5696 87.0316 83.5369 87.0172 83.4985C87.0076 83.4745 87.0028 83.4476 87.0037 83.4217C87.0047 83.3948 87.0104 83.3689 87.021 83.3449C87.0316 83.3209 87.0469 83.2988 87.0661 83.2816C87.0853 83.2633 87.1084 83.2489 87.1333 83.2393C87.2994 83.1616 87.4472 83.0502 87.5692 82.9139C87.6911 82.7766 87.7842 82.6163 87.8428 82.4425C88.078 81.7926 87.8985 80.8873 87.3205 79.8226C84.501 74.6385 73.9226 78.108 73.8189 78.1436C73.793 78.1522 73.767 78.156 73.7402 78.1541C73.7133 78.1522 73.6874 78.1455 73.6643 78.133C73.6403 78.1215 73.6192 78.1052 73.6019 78.085C73.5846 78.0648 73.5712 78.0408 73.5635 78.0159C73.5482 77.966 73.553 77.9112 73.577 77.8642C73.6 77.8181 73.6413 77.7816 73.6912 77.7644C74.1376 77.6175 84.693 74.1758 87.6709 79.6306C88.317 80.8268 88.5004 81.8156 88.2133 82.5855C88.1337 82.8102 88.0089 83.0156 87.8466 83.1904C87.6853 83.3651 87.4895 83.5052 87.2725 83.6022C87.2514 83.6147 87.2284 83.6224 87.2044 83.6262Z" fill="#3B7CD3"/>
<path d="M93.019 98.9307L95.0322 95.0426L97.0943 98.2126C97.0943 98.2126 95.5189 96.7533 95.0687 96.809C94.6175 96.8657 93.019 98.9307 93.019 98.9307Z" fill="#3B7CD3"/>
<path d="M172.539 76.1897C172.539 76.1897 191.396 90.325 197.131 112.225C202.865 134.125 203.327 138.483 203.327 138.483L224.438 151.136C224.438 151.136 224.211 159.111 219.389 163.713C216.278 166.613 212.809 169.105 209.065 171.126C209.065 171.126 179.386 159.442 174.373 151.136C169.361 142.83 164.544 135.637 164.544 135.637C164.544 135.637 108.176 196.432 105.328 197.121C103.736 197.549 102.043 197.408 100.543 196.722L105.632 191.319C105.632 191.319 102.545 180.855 94.7133 172.665C87.4124 165.029 75.1981 156.767 71.7603 159.614C68.3225 162.461 135.008 97.2083 135.008 97.2083L133.413 84.4161L168.56 73.2262L172.539 76.1897V76.1897Z" fill="#5E96FC"/>
<path d="M103.421 197.552C102.389 197.572 101.367 197.351 100.435 196.906C100.41 196.89 100.388 196.869 100.37 196.844C100.353 196.819 100.342 196.791 100.336 196.763C100.331 196.732 100.334 196.701 100.343 196.672C100.352 196.644 100.367 196.617 100.388 196.595L105.396 191.275C105.041 190.142 101.843 180.429 94.5613 172.808C86.8697 164.765 75.0222 157.157 71.88 159.773C71.7764 159.861 71.6132 159.992 71.4816 159.845C71.3501 159.697 71.3146 159.658 74.1447 156.811C75.7758 155.176 78.1806 152.779 81.2949 149.697C86.5423 144.513 93.8759 137.279 103.091 128.227C118.244 113.337 133.62 98.2919 134.793 97.1438L133.197 84.4514C133.191 84.4053 133.201 84.3583 133.226 84.3189C133.251 84.2796 133.288 84.2508 133.332 84.2364L168.476 73.0426C168.506 73.033 168.538 73.0301 168.569 73.0359C168.601 73.0416 168.63 73.0551 168.655 73.0752L172.642 76.0292C172.834 76.1732 191.62 90.4563 197.31 112.173C202.553 132.135 203.403 137.579 203.514 138.375L224.537 150.973C224.567 150.991 224.592 151.018 224.61 151.05C224.626 151.08 224.635 151.116 224.633 151.152C224.633 151.232 224.346 159.266 219.525 163.865C216.396 166.773 212.913 169.274 209.157 171.31C209.13 171.321 209.102 171.327 209.073 171.327C209.044 171.327 209.016 171.321 208.989 171.31C207.793 170.831 179.19 159.506 174.206 151.24C169.728 143.819 165.353 137.203 164.523 135.959C160.476 140.325 108.195 196.63 105.372 197.313C104.734 197.469 104.079 197.55 103.421 197.552V197.552ZM100.87 196.667C102.277 197.211 103.819 197.302 105.28 196.926C107.485 196.391 144.917 156.52 164.4 135.517C164.421 135.494 164.447 135.477 164.474 135.467C164.503 135.455 164.533 135.451 164.564 135.453C164.593 135.455 164.622 135.465 164.647 135.48C164.673 135.495 164.694 135.516 164.712 135.541C164.763 135.613 169.592 142.838 174.545 151.049C179.33 158.984 207.295 170.221 209.054 170.923C212.747 168.912 216.174 166.445 219.254 163.582C223.64 159.399 224.178 152.256 224.234 151.264L203.223 138.659C203.198 138.642 203.175 138.621 203.159 138.595C203.143 138.57 203.132 138.542 203.127 138.512C203.127 138.468 202.598 133.882 196.939 112.281C191.281 90.68 172.638 76.5198 172.419 76.3566L168.507 73.4612L133.62 84.5628L135.215 97.1918C135.218 97.2225 135.215 97.2532 135.204 97.282C135.193 97.3108 135.177 97.3377 135.155 97.3598C115.097 116.986 78.2997 153.078 72.5501 158.992C77.0555 157.692 88.3289 165.715 94.8484 172.549C102.625 180.684 105.782 191.184 105.815 191.291C105.824 191.324 105.825 191.36 105.817 191.393C105.808 191.427 105.791 191.458 105.767 191.482L100.87 196.667V196.667Z" fill="#3B7CD3"/>
<path d="M164.547 135.645L143.094 102.44L161.636 138.775L164.547 135.645Z" fill="#3B7CD3"/>
<path d="M216.351 163.921C216.31 163.92 216.272 163.907 216.239 163.884C216.032 163.745 195.384 149.853 187.245 144.119C179.107 138.384 159.331 81.3538 158.479 78.9288C158.462 78.8789 158.466 78.8251 158.489 78.7781C158.512 78.7311 158.553 78.6955 158.602 78.6783C158.653 78.661 158.707 78.6648 158.755 78.6879C158.803 78.7109 158.839 78.7512 158.857 78.8011C159.061 79.3916 179.394 138.097 187.476 143.799C195.56 149.501 216.255 163.423 216.462 163.562C216.506 163.592 216.537 163.638 216.547 163.69C216.558 163.742 216.547 163.796 216.518 163.841C216.498 163.866 216.473 163.887 216.444 163.901C216.415 163.914 216.382 163.922 216.351 163.921Z" fill="#3B7CD3"/>
<path d="M163.492 97.4862C160.277 97.4344 157.116 96.6606 154.241 95.2216C148.26 92.3185 149.308 83.8732 149.321 83.7849C149.327 83.7331 149.354 83.6851 149.396 83.6534C149.439 83.6208 149.491 83.6073 149.543 83.614C149.595 83.6217 149.642 83.6496 149.674 83.6908C149.705 83.7321 149.721 83.7849 149.715 83.8368C149.715 83.9212 148.702 92.0871 154.416 94.8625C160.206 97.6783 164.74 97.0283 164.784 97.0197C164.837 97.012 164.891 97.0254 164.933 97.0571C164.976 97.0888 165.005 97.1368 165.013 97.1896C165.022 97.2424 165.008 97.2962 164.976 97.3394C164.944 97.3826 164.897 97.4114 164.844 97.419C164.395 97.4699 163.943 97.492 163.492 97.4862V97.4862Z" fill="#3B7CD3"/>
<path d="M175.434 78.5029L172.738 76.3457C170.141 76.3121 167.549 76.5608 165.006 77.0868C162.617 77.5553 160.273 78.236 158.004 79.1211C155.432 80.1186 152.985 81.4108 150.711 82.9727C144.912 87.0624 139.636 91.8461 135 97.2164L134.102 96.4187L132.508 95.0036L123.95 87.3945L121.749 85.4332C120.067 85.3142 118.418 84.91 116.872 84.237C115.126 83.518 113.5 82.5397 112.047 81.334C107.19 77.3259 105.085 75.1726 105.085 75.1726C105.085 75.1726 103.837 67.0662 104.778 61.5039C104.861 61.0056 104.965 60.5228 105.085 60.0764C105.339 59.1509 105.583 58.3579 105.815 57.684C105.998 57.1454 106.178 56.6789 106.345 56.2728C106.539 55.7985 106.757 55.3339 106.998 54.8808C107.199 54.4545 107.479 54.0715 107.824 53.7518C107.824 53.7518 111.864 57.9067 115.109 54.5256C118.355 51.1444 116.911 45.8163 116.911 45.8163C116.911 45.8163 118.207 44.0422 126.754 43.1244C135.299 42.2076 144.466 42.1318 148.937 42.6703L149.622 42.7702C150.293 42.8681 150.959 43.0006 151.616 43.1686C154.467 43.8828 156.162 44.983 156.525 45.4179C156.592 45.4745 156.645 45.5446 156.683 45.6243C156.719 45.704 156.739 45.7904 156.739 45.8787C156.739 45.967 156.719 46.0534 156.683 46.1331C156.645 46.2128 156.592 46.2829 156.525 46.3395L154.643 45.8173C154.643 45.8173 154.818 46.3558 155.073 47.241C155.802 49.7293 156.378 52.259 156.8 54.8174C157.058 56.3381 157.135 57.8846 157.027 59.4235C156.924 60.421 156.839 61.286 156.76 62.0357C156.477 64.7833 156.333 65.9718 156.333 65.9718L157.234 66.3702C161.018 68.0646 175.458 74.6926 176.128 77.3681C176.502 78.8475 175.434 78.5048 175.434 78.5048V78.5029Z" fill="#92C1FF"/>
<path d="M135.001 97.4159C134.952 97.4159 134.906 97.3996 134.868 97.3679L121.657 85.6279C119.978 85.5021 118.332 85.0979 116.785 84.4317C115.02 83.7059 113.375 82.7161 111.908 81.4969C107.123 77.533 104.954 75.3442 104.934 75.324C104.902 75.2952 104.882 75.2559 104.878 75.2127C104.878 75.133 103.634 67.0103 104.567 61.4835C104.658 60.9651 104.762 60.4784 104.882 60.0358C105.133 59.1142 105.38 58.3049 105.616 57.6434C105.784 57.1529 105.958 56.6863 106.15 56.2197C106.343 55.7368 106.564 55.2655 106.812 54.8085C107.025 54.3554 107.326 53.9483 107.697 53.6123C107.736 53.5864 107.783 53.5749 107.83 53.5797C107.876 53.5845 107.92 53.6066 107.952 53.6402C107.972 53.6402 109.966 55.6773 112.199 55.6773C112.719 55.6687 113.231 55.5516 113.704 55.3336C114.176 55.1157 114.597 54.8028 114.943 54.413C118.073 51.1509 116.71 45.9437 116.697 45.8919C116.689 45.8631 116.687 45.8324 116.693 45.8026C116.699 45.7729 116.711 45.745 116.729 45.721C116.781 45.6452 118.173 43.8624 126.698 42.9495C135.742 41.9846 144.722 41.9923 148.925 42.4992C149.164 42.5271 149.391 42.5587 149.619 42.5952C150.289 42.6951 150.959 42.8304 151.613 42.9936C154.575 43.7395 156.27 44.88 156.625 45.314C156.711 45.4042 156.778 45.5117 156.819 45.6289C156.861 45.746 156.877 45.8717 156.868 45.9956C156.842 46.201 156.735 46.3892 156.573 46.5178C156.549 46.537 156.521 46.5495 156.492 46.5553C156.462 46.561 156.431 46.5591 156.401 46.5505L154.87 46.1242C154.946 46.3757 155.058 46.7425 155.194 47.2052C155.924 49.7089 156.502 52.2549 156.925 54.8296C157.191 56.3484 157.276 57.893 157.175 59.431L157.092 60.2681C157.028 60.9219 156.968 61.5123 156.912 62.0422C156.685 64.2272 156.549 65.4397 156.514 65.8343L157.283 66.1732C161.565 68.0951 175.602 74.5704 176.288 77.3065C176.435 77.9084 176.388 78.3308 176.136 78.5622C176.025 78.6486 175.893 78.7062 175.754 78.7302C175.616 78.7542 175.473 78.7446 175.339 78.7014C175.316 78.6946 175.293 78.6822 175.275 78.6658L172.631 76.5528C170.072 76.5298 167.518 76.7775 165.011 77.2901C162.634 77.7557 160.302 78.4326 158.045 79.3119C155.484 80.3036 153.049 81.5891 150.787 83.1443C141.851 89.3287 135.216 97.2642 135.156 97.3439C135.139 97.365 135.118 97.3823 135.094 97.3948C135.07 97.4072 135.043 97.414 135.016 97.4159H135.001V97.4159ZM105.277 75.085C105.608 75.4162 107.769 77.5493 112.175 81.1859C113.616 82.3801 115.229 83.3497 116.96 84.0611C118.486 84.7139 120.11 85.1056 121.765 85.2218C121.813 85.2227 121.858 85.241 121.893 85.2736L134.988 96.9215C135.973 95.7647 142.285 88.5271 150.608 82.7929C152.897 81.2291 155.359 79.934 157.945 78.9327C160.224 78.0457 162.578 77.3621 164.979 76.8917C167.539 76.3647 170.149 76.1151 172.763 76.1458C172.804 76.1506 172.844 76.166 172.878 76.19L175.538 78.3193C175.601 78.3385 175.667 78.3433 175.732 78.3337C175.796 78.3241 175.859 78.3001 175.913 78.2636C176.044 78.1397 176.057 77.8325 175.949 77.3977C175.427 75.372 165.92 70.4472 157.147 66.5313C156.573 66.2721 156.246 66.1328 156.246 66.1328C156.207 66.1156 156.175 66.0858 156.155 66.0484C156.133 66.0109 156.125 65.9677 156.131 65.9255C156.131 65.9255 156.274 64.7091 156.557 61.9933C156.613 61.4633 156.669 60.8729 156.736 60.2192L156.821 59.382C156.914 57.8767 156.831 56.3657 156.573 54.8805C156.152 52.323 155.577 49.7924 154.851 47.3041C154.596 46.4266 154.424 45.8842 154.424 45.8842C154.412 45.8506 154.41 45.8132 154.418 45.7786C154.426 45.7441 154.443 45.7114 154.468 45.6855C154.494 45.6605 154.525 45.6423 154.56 45.6317C154.596 45.6221 154.632 45.6212 154.668 45.6298L156.434 46.1242C156.476 46.0695 156.503 46.0052 156.514 45.937C156.514 45.8669 156.501 45.7969 156.474 45.7316C156.447 45.6663 156.408 45.6077 156.358 45.5578C156.043 45.1594 154.396 44.0861 151.572 43.3728C150.935 43.2135 150.273 43.0819 149.611 42.9744C149.387 42.9399 149.16 42.9082 148.929 42.8784C144.75 42.3763 135.806 42.3715 126.794 43.3325C119.413 44.1303 117.487 45.5655 117.148 45.8804C117.332 46.6782 118.3 51.5233 115.269 54.6732C114.888 55.1023 114.423 55.4469 113.901 55.686C113.378 55.925 112.813 56.0527 112.239 56.0604C110.165 56.0604 108.359 54.5167 107.852 54.0386C107.602 54.3276 107.385 54.6444 107.206 54.9842C106.967 55.4296 106.751 55.8876 106.56 56.3561C106.373 56.8149 106.202 57.2729 106.038 57.7558C105.803 58.4297 105.56 59.2275 105.312 60.1481C105.193 60.5792 105.093 61.0534 105.006 61.5555C104.112 66.7636 105.165 74.3275 105.277 75.0975V75.085Z" fill="#3B7CD3"/>
<path d="M145.734 60.2025L156.333 65.9492L156.787 61.7702L145.734 60.2035V60.2025Z" fill="#3B7CD3"/>
<path d="M113.216 74.0439L121.753 85.4325L119.202 85.0216L113.216 74.0439V74.0439Z" fill="#3B7CD3"/>
<path d="M154.46 45.8839L156.401 46.3543C156.401 46.3543 157.881 45.7437 155.473 44.6675C153.79 43.9139 154.46 45.8839 154.46 45.8839Z" fill="#3B7CD3"/>
<path d="M172.539 76.19C172.539 76.19 174.796 78.6342 175.434 78.5027C176.071 78.3711 176.574 77.8489 175.864 76.8274C175.227 75.9106 172.539 76.19 172.539 76.19Z" fill="#3B7CD3"/>
<path d="M100.471 196.738C100.471 196.738 103.945 197.966 105.328 197.136C107.841 195.594 105.656 190.908 105.656 190.908L100.471 196.738Z" fill="#3B7CD3"/>
<path d="M71.4613 159.674C71.3595 160 71.3326 160.345 71.3826 160.683C71.4325 161.02 71.5592 161.342 71.7522 161.624L72.4146 162.684L76.0434 159.47C75.3061 159.216 74.5343 159.074 73.7548 159.048C72.9695 159.172 72.2015 159.382 71.4622 159.674H71.4613Z" fill="#3B7CD3"/>
<path d="M151.409 43.3837C150.765 43.3895 150.129 43.2531 149.543 42.9853C149.5 42.9642 149.466 42.9287 149.447 42.8845C149.428 42.8403 149.425 42.7914 149.439 42.7453C149.453 42.6992 149.483 42.6598 149.523 42.6339C149.563 42.608 149.611 42.5984 149.659 42.6061C150.333 42.7098 151.006 42.8413 151.652 43.0045C151.699 43.016 151.742 43.0439 151.769 43.0832C151.797 43.1226 151.81 43.1715 151.804 43.2195C151.799 43.2666 151.777 43.3107 151.743 43.3434C151.709 43.376 151.664 43.3962 151.617 43.3991L151.409 43.3827V43.3837Z" fill="#3B7CD3"/>
<path d="M126.538 52.0764C125.453 52.0783 124.406 51.6751 123.601 50.9465C122.798 50.2178 122.294 49.2146 122.189 48.1346C122.085 47.0546 122.386 45.9736 123.036 45.1038C123.685 44.234 124.635 43.6379 125.701 43.4315C126.548 43.2635 127.425 43.3499 128.223 43.6811C129.02 44.0113 129.701 44.572 130.18 45.29C130.66 46.0081 130.914 46.852 130.914 47.715C130.913 48.5781 130.656 49.422 130.175 50.1391C129.856 50.6172 129.445 51.0281 128.966 51.3449C128.487 51.6617 127.948 51.8815 127.384 51.989C127.106 52.0476 126.822 52.0764 126.538 52.0764V52.0764ZM126.538 43.7463C126.27 43.7444 126.003 43.7703 125.741 43.8222C125.102 43.9499 124.504 44.2321 124.001 44.6459C123.497 45.0596 123.102 45.5905 122.854 46.1925C122.604 46.7944 122.507 47.4491 122.57 48.0971C122.634 48.7461 122.857 49.3682 123.218 49.9106C123.58 50.452 124.07 50.8965 124.644 51.2047C125.219 51.5119 125.86 51.6732 126.512 51.6741C127.163 51.6741 127.805 51.5148 128.38 51.2076C128.955 50.9004 129.446 50.4568 129.808 49.9164C130.206 49.3202 130.435 48.6271 130.47 47.9109C130.506 47.1947 130.347 46.4824 130.01 45.8497C129.672 45.2171 129.17 44.6872 128.556 44.3176C127.942 43.947 127.239 43.7502 126.523 43.7473H126.538V43.7463Z" fill="#3B7CD3"/>
<path d="M143.867 54.6369C143.08 54.6341 142.307 54.4181 141.632 54.011C140.957 53.6049 140.404 53.0232 140.034 52.3271C139.663 51.6321 139.488 50.8497 139.525 50.0625C139.563 49.2753 139.814 48.513 140.251 47.8573C140.565 47.3716 140.973 46.9539 141.451 46.6266C141.928 46.3002 142.465 46.0717 143.033 45.9555C143.599 45.8384 144.183 45.8355 144.751 45.9469C145.319 46.0583 145.859 46.281 146.339 46.6026C146.82 46.9242 147.232 47.3389 147.552 47.8208C147.87 48.3037 148.09 48.8442 148.199 49.4125C148.306 49.9809 148.3 50.5655 148.18 51.131C148.06 51.6974 147.829 52.2331 147.5 52.7092C147.181 53.1883 146.77 53.5982 146.291 53.9169C145.812 54.2357 145.274 54.4555 144.709 54.563C144.432 54.6129 144.149 54.6369 143.867 54.635V54.6369ZM143.867 46.3107C143.185 46.3146 142.513 46.4951 141.92 46.8339C141.327 47.1728 140.832 47.6605 140.483 48.2471C140.134 48.8346 139.942 49.5018 139.926 50.1854C139.911 50.8689 140.072 51.5438 140.395 52.1467C140.718 52.7486 141.191 53.2574 141.769 53.6232C142.345 53.9889 143.007 54.1992 143.69 54.2337C144.372 54.2683 145.052 54.1253 145.663 53.82C146.274 53.5137 146.795 53.0558 147.177 52.4884C147.577 51.8923 147.807 51.1991 147.843 50.482C147.879 49.7649 147.72 49.0516 147.382 48.4189C147.044 47.7853 146.54 47.2564 145.924 46.8877C145.309 46.5181 144.605 46.3232 143.887 46.3242L143.867 46.3127V46.3107Z" fill="#3B7CD3"/>
<path d="M153.463 68.9355C152.675 68.9326 151.903 68.7166 151.228 68.3105C150.552 67.9035 150 67.3217 149.629 66.6266C149.258 65.9316 149.082 65.1492 149.121 64.362C149.159 63.5748 149.41 62.8125 149.846 62.1568C149.861 62.1347 149.88 62.1165 149.902 62.1021C149.924 62.0877 149.949 62.0781 149.975 62.0723C150.001 62.0675 150.028 62.0675 150.054 62.0733C150.079 62.0791 150.104 62.0896 150.125 62.105C150.147 62.1194 150.166 62.1376 150.181 62.1597C150.195 62.1818 150.205 62.2058 150.209 62.2317C150.214 62.2576 150.214 62.2835 150.208 62.3095C150.203 62.3354 150.192 62.3594 150.177 62.3805C149.593 63.2541 149.38 64.3245 149.584 65.3565C149.79 66.3876 150.396 67.2958 151.27 67.8795C152.144 68.4641 153.214 68.6772 154.245 68.4718C155.276 68.2673 156.184 67.6606 156.769 66.787C156.844 66.6718 156.912 66.5633 156.968 66.4596L156.255 66.1447C156.215 66.1274 156.183 66.0977 156.162 66.0602C156.141 66.0228 156.134 65.9796 156.138 65.9374C156.138 65.9374 156.282 64.721 156.566 62.0061C156.57 61.9533 156.596 61.9043 156.638 61.8707C156.679 61.8371 156.732 61.8208 156.784 61.8266C156.837 61.8323 156.886 61.8583 156.92 61.8986C156.953 61.9389 156.97 61.9927 156.964 62.0455C156.736 64.2305 156.601 65.4429 156.566 65.8375L157.335 66.1764C157.383 66.1985 157.419 66.2388 157.437 66.2878C157.456 66.3367 157.456 66.3914 157.434 66.4394C157.345 66.6382 157.239 66.8292 157.116 67.0097C156.796 67.4887 156.385 67.8987 155.906 68.2164C155.427 68.5352 154.889 68.755 154.324 68.8635C154.04 68.9153 153.752 68.9393 153.463 68.9355V68.9355Z" fill="#3B7CD3"/>
<path d="M118.415 64.2071C117.443 64.2052 116.499 63.8788 115.734 63.2788C114.968 62.6787 114.425 61.8407 114.191 60.897C113.956 59.9533 114.043 58.9587 114.439 58.0697C114.835 57.1817 115.516 56.4511 116.374 55.9942C117.232 55.5372 118.219 55.3797 119.176 55.5478C120.134 55.7158 121.009 56.1986 121.661 56.9196C122.313 57.6406 122.705 58.5593 122.775 59.5299C122.845 60.5005 122.589 61.4653 122.048 62.2736C121.648 62.8698 121.108 63.3584 120.474 63.6954C119.841 64.0324 119.133 64.209 118.415 64.2071V64.2071ZM118.415 55.8847C117.73 55.8838 117.056 56.0604 116.46 56.3974C115.863 56.7343 115.364 57.2201 115.012 57.8067C114.658 58.3942 114.464 59.0624 114.446 59.7478C114.429 60.4333 114.589 61.1101 114.912 61.7149C115.234 62.3197 115.708 62.8295 116.287 63.1962C116.865 63.5629 117.529 63.7732 118.213 63.8077C118.898 63.8413 119.579 63.6973 120.191 63.3892C120.803 63.081 121.325 62.6192 121.705 62.0499C122.105 61.4538 122.335 60.7606 122.371 60.0435C122.407 59.3264 122.247 58.614 121.909 57.9804C121.571 57.3468 121.068 56.8179 120.453 56.4492C119.838 56.0806 119.133 55.8847 118.415 55.8857V55.8847Z" fill="#3B7CD3"/>
<path d="M135.741 66.7896C134.881 66.7915 134.039 66.5361 133.325 66.0561C132.608 65.5761 132.049 64.8945 131.719 64.0967C131.389 63.299 131.304 62.4215 131.473 61.5757C131.642 60.729 132.059 59.9524 132.669 59.3427C133.28 58.7331 134.058 58.3184 134.904 58.1514C135.751 57.9843 136.628 58.0717 137.425 58.4029C138.222 58.7341 138.903 59.2938 139.382 60.0128C139.86 60.7309 140.114 61.5748 140.113 62.4378C140.113 63.3009 139.855 64.1438 139.374 64.8609C138.975 65.4571 138.433 65.9448 137.799 66.2817C137.166 66.6187 136.459 66.7934 135.741 66.7915V66.7896ZM135.741 58.4672C134.791 58.4653 133.871 58.8051 133.15 59.4253C132.429 60.0445 131.955 60.9028 131.814 61.8436C131.673 62.7834 131.874 63.7434 132.381 64.547C132.889 65.3515 133.669 65.9457 134.578 66.2232C135.487 66.5006 136.466 66.4411 137.335 66.0571C138.205 65.6731 138.907 64.9895 139.314 64.1303C139.722 63.2711 139.808 62.2948 139.554 61.378C139.302 60.4612 138.729 59.6663 137.939 59.1373C137.294 58.7024 136.535 58.4701 135.758 58.4672H135.741Z" fill="#3B7CD3"/>
<path d="M145.335 81.0814C144.209 81.0805 143.126 80.6465 142.312 79.8689C141.497 79.0923 141.012 78.0315 140.959 76.9063C140.904 75.7821 141.284 74.6791 142.02 73.8276C142.757 72.9751 143.793 72.4394 144.913 72.3299C146.034 72.2205 147.154 72.5459 148.041 73.2391C148.928 73.9332 149.514 74.9412 149.679 76.0548C149.843 77.1684 149.573 78.3031 148.924 79.2238C148.275 80.1435 147.298 80.779 146.193 80.9979C145.91 81.0536 145.623 81.0814 145.335 81.0814ZM145.335 72.7514C145.067 72.7514 144.801 72.7783 144.537 72.8311C143.898 72.9578 143.3 73.241 142.796 73.6538C142.291 74.0676 141.897 74.5985 141.647 75.2013C141.397 75.8033 141.3 76.458 141.364 77.107C141.428 77.7559 141.651 78.379 142.013 78.9204C142.375 79.4628 142.865 79.9073 143.44 80.2145C144.015 80.5217 144.657 80.683 145.309 80.683C145.961 80.683 146.602 80.5217 147.178 80.2145C147.753 79.9073 148.243 79.4628 148.605 78.9204C148.996 78.3223 149.219 77.6302 149.251 76.9169C149.283 76.2036 149.123 75.4941 148.787 74.8644C148.45 74.2336 147.952 73.7047 147.342 73.3332C146.732 72.9616 146.033 72.761 145.319 72.7514H145.335V72.7514Z" fill="#3B7CD3"/>
<path d="M158.004 79.3199C157.974 79.3199 157.946 79.3112 157.919 79.2978C157.892 79.2844 157.869 79.2652 157.851 79.2412C157.832 79.2181 157.82 79.1903 157.813 79.1615C157.806 79.1317 157.806 79.102 157.813 79.0732C157.93 78.5499 158.143 78.0536 158.443 77.6091C159.091 76.653 160.09 75.9905 161.224 75.7669C162.357 75.5432 163.533 75.7755 164.496 76.413C164.728 76.5723 164.945 76.7509 165.146 76.9477C165.172 76.9726 165.19 77.0053 165.2 77.0398C165.208 77.0754 165.208 77.1119 165.198 77.1464C165.188 77.181 165.168 77.2117 165.141 77.2357C165.114 77.2597 165.081 77.276 165.047 77.2827C162.669 77.7474 160.337 78.4242 158.08 79.3045C158.056 79.3132 158.03 79.3189 158.004 79.3199V79.3199ZM162.076 76.0741C161.423 76.0731 160.781 76.2325 160.205 76.5397C159.629 76.8459 159.137 77.2904 158.774 77.8328C158.573 78.1285 158.415 78.4511 158.304 78.79C160.344 78.0162 162.442 77.4066 164.58 76.9678C164.48 76.8872 164.377 76.8123 164.273 76.7403C163.622 76.3054 162.858 76.0731 162.076 76.0741V76.0741Z" fill="#3B7CD3"/>
<path d="M105.823 57.8984C105.792 57.9003 105.762 57.8927 105.736 57.8783C105.69 57.8581 105.655 57.8216 105.636 57.7765C105.616 57.7314 105.616 57.6805 105.632 57.6344C105.799 57.1439 105.975 56.6773 106.166 56.2107C106.185 56.1656 106.219 56.1282 106.264 56.107C106.308 56.0859 106.358 56.0811 106.406 56.0946C106.453 56.109 106.493 56.1397 106.519 56.181C106.544 56.2232 106.553 56.2731 106.545 56.3211C106.456 56.8453 106.268 57.3474 105.991 57.8005C105.974 57.8293 105.949 57.8533 105.919 57.8706C105.89 57.8869 105.856 57.8965 105.823 57.8965V57.8984Z" fill="#3B7CD3"/>
<path d="M111.235 74.9729C110.262 74.97 109.318 74.6436 108.553 74.0436C107.788 73.4446 107.245 72.6065 107.01 71.6628C106.776 70.7191 106.864 69.7245 107.259 68.8365C107.654 67.9485 108.334 67.2179 109.193 66.7609C110.051 66.304 111.037 66.1465 111.994 66.3136C112.952 66.4806 113.827 66.9626 114.478 67.6835C115.131 68.4045 115.524 69.3232 115.595 70.2919C115.666 71.2615 115.412 72.2273 114.871 73.0356C114.551 73.5137 114.14 73.9246 113.661 74.2423C113.182 74.5611 112.645 74.7809 112.079 74.8894C111.801 74.9451 111.518 74.9729 111.235 74.9739V74.9729ZM111.254 66.6429C110.987 66.6409 110.719 66.6669 110.457 66.7187C109.689 66.8723 108.984 67.2496 108.43 67.8035C107.877 68.3575 107.5 69.0621 107.347 69.8301C107.194 70.5972 107.272 71.393 107.57 72.1169C107.869 72.8407 108.375 73.4599 109.025 73.8958C109.458 74.1857 109.943 74.3873 110.453 74.4891C110.964 74.5908 111.489 74.5918 112 74.491C112.51 74.3892 112.996 74.1886 113.429 73.8996C113.862 73.6116 114.235 73.2401 114.524 72.8071C115.102 71.9316 115.312 70.8631 115.107 69.833C114.903 68.8039 114.301 67.8966 113.431 67.3082C112.79 66.8685 112.031 66.6294 111.254 66.6227V66.6429V66.6429Z" fill="#3B7CD3"/>
<path d="M128.559 77.5251C127.434 77.5242 126.351 77.0902 125.536 76.3126C124.722 75.536 124.237 74.4752 124.183 73.35C124.129 72.2258 124.509 71.1228 125.245 70.2713C125.982 69.4188 127.016 68.8831 128.138 68.7736C129.258 68.6642 130.378 68.9896 131.265 69.6828C132.153 70.3759 132.739 71.3849 132.903 72.4985C133.067 73.6121 132.798 74.7468 132.149 75.6665C131.5 76.5872 130.521 77.2227 129.416 77.4416C129.134 77.4973 128.847 77.5251 128.559 77.5251ZM128.579 69.1951C128.312 69.1951 128.045 69.222 127.782 69.2748C127.145 69.4053 126.55 69.6904 126.049 70.1052C125.549 70.5199 125.157 71.0517 124.91 71.6537C124.663 72.2546 124.568 72.9084 124.634 73.5555C124.699 74.2025 124.923 74.8236 125.285 75.3632C125.647 75.9037 126.135 76.3462 126.709 76.6534C127.282 76.9597 127.923 77.121 128.573 77.1219C129.223 77.1219 129.863 76.9635 130.438 76.6582C131.012 76.3529 131.502 75.9113 131.865 75.3718C132.256 74.7737 132.479 74.0825 132.511 73.3683C132.543 72.655 132.383 71.9465 132.047 71.3157C131.711 70.685 131.212 70.157 130.602 69.7855C129.993 69.413 129.294 69.2124 128.579 69.2028V69.1951V69.1951Z" fill="#3B7CD3"/>
<path d="M104.782 61.7217C104.732 61.7217 104.684 61.7035 104.647 61.6699C104.621 61.6469 104.602 61.619 104.591 61.5864C104.58 61.5547 104.577 61.5201 104.583 61.4865C104.675 60.972 104.779 60.4852 104.898 60.0427C105.149 59.122 105.397 58.3118 105.632 57.6503C105.799 57.1598 105.975 56.6932 106.166 56.2266C106.36 55.7437 106.581 55.2724 106.828 54.8154C106.844 54.7866 106.867 54.7616 106.894 54.7444C106.921 54.7261 106.953 54.7156 106.986 54.7127C107.019 54.7098 107.052 54.7156 107.082 54.728C107.112 54.7415 107.138 54.7616 107.159 54.7876C107.738 55.5104 108.071 56.3985 108.11 57.3239C108.149 58.2494 107.891 59.1623 107.374 59.9313C106.777 60.8241 105.871 61.4654 104.83 61.7294L104.782 61.7217V61.7217ZM107.032 55.2695C106.868 55.592 106.701 55.9597 106.532 56.362C106.365 56.7642 106.174 57.2788 106.01 57.7617C105.775 58.4356 105.532 59.2334 105.284 60.154C105.193 60.4929 105.11 60.8596 105.034 61.2465C105.851 60.9643 106.552 60.4209 107.028 59.699C107.472 59.0462 107.71 58.2743 107.711 57.4842C107.711 56.6941 107.475 55.9223 107.032 55.2685V55.2695Z" fill="#3B7CD3"/>
<path d="M138.158 91.813C137.476 91.8139 136.803 91.6555 136.192 91.3493C135.582 91.0431 135.052 90.5976 134.645 90.0494C134.239 89.5013 133.967 88.8648 133.851 88.1918C133.734 87.5188 133.779 86.8286 133.977 86.1758C134.177 85.523 134.527 84.9258 134.999 84.4334C135.471 83.9399 136.053 83.5645 136.696 83.337C137.34 83.1095 138.028 83.0365 138.705 83.1239C139.382 83.2103 140.029 83.4551 140.595 83.8372C141.551 84.4862 142.213 85.4846 142.437 86.6183C142.662 87.7512 142.429 88.9272 141.791 89.891C141.472 90.3691 141.06 90.78 140.581 91.0978C140.102 91.4165 139.565 91.6363 139 91.7448C138.722 91.7938 138.44 91.8168 138.158 91.813V91.813ZM138.158 83.4868C137.474 83.4868 136.8 83.6625 136.203 83.9985C135.606 84.3354 135.107 84.8212 134.755 85.4087C134.402 85.9963 134.207 86.6644 134.189 87.3499C134.172 88.0344 134.332 88.7121 134.655 89.316C134.978 89.9208 135.451 90.4315 136.03 90.7982C136.609 91.165 137.272 91.3752 137.956 91.4088C138.641 91.4434 139.323 91.2984 139.934 90.9903C140.546 90.683 141.068 90.2213 141.448 89.651C141.847 89.0558 142.078 88.3617 142.114 87.6456C142.15 86.9284 141.99 86.2151 141.653 85.5825C141.315 84.9489 140.812 84.4199 140.196 84.0503C139.58 83.6817 138.876 83.4868 138.158 83.4868V83.4868Z" fill="#3B7CD3"/>
<path d="M156.777 55.0353H156.749C156.014 54.9364 155.318 54.6522 154.725 54.2087C154.132 53.7661 153.661 53.1786 153.358 52.5037C153.055 51.8279 152.929 51.0867 152.991 50.3494C153.055 49.6121 153.304 48.9027 153.718 48.2883C154.037 47.8035 154.453 47.3897 154.938 47.0719C154.964 47.0547 154.995 47.0441 155.026 47.0412C155.056 47.0383 155.088 47.0412 155.118 47.0518C155.147 47.0633 155.173 47.0806 155.195 47.1036C155.216 47.1267 155.232 47.1536 155.242 47.1833C155.972 49.687 156.55 52.233 156.972 54.8077C156.977 54.8375 156.975 54.8692 156.967 54.898C156.958 54.9268 156.942 54.9537 156.92 54.9758C156.882 55.0142 156.83 55.0353 156.777 55.0353V55.0353ZM154.934 47.5625C154.589 47.8265 154.289 48.1452 154.049 48.5081C153.686 49.0467 153.462 49.6669 153.395 50.3139C153.328 50.96 153.422 51.6128 153.668 52.2147C153.915 52.8167 154.305 53.3476 154.806 53.7623C155.306 54.177 155.9 54.4621 156.538 54.5927C156.134 52.2253 155.599 49.8819 154.934 47.574V47.5625V47.5625Z" fill="#3B7CD3"/>
<path d="M123.954 87.59C123.906 87.59 123.859 87.5737 123.823 87.542L121.621 85.5807C121.597 85.5643 121.578 85.5432 121.564 85.5192C121.548 85.4952 121.539 85.4683 121.536 85.4395C121.532 85.4117 121.535 85.3829 121.544 85.356C121.551 85.3291 121.566 85.3042 121.585 85.2831C121.604 85.2619 121.627 85.2447 121.653 85.2331C121.679 85.2216 121.707 85.2159 121.736 85.2159C121.763 85.2168 121.791 85.2226 121.817 85.2341C121.843 85.2466 121.866 85.2639 121.884 85.285L123.946 87.1196C124.092 86.9669 124.226 86.8028 124.345 86.629C124.923 85.7535 125.132 84.685 124.928 83.6549C124.723 82.6257 124.121 81.7185 123.252 81.13C121.354 79.858 119.125 80.2007 117.961 81.9278C117.931 81.972 117.885 82.0017 117.833 82.0123C117.781 82.0219 117.728 82.0123 117.683 81.9816C117.639 81.9518 117.609 81.9057 117.599 81.8539C117.589 81.802 117.6 81.7483 117.63 81.7041C118.922 79.7745 121.382 79.3876 123.475 80.7873C124.432 81.4353 125.094 82.4347 125.317 83.5675C125.542 84.7013 125.31 85.8773 124.671 86.8402C124.508 87.0888 124.319 87.3192 124.106 87.5266C124.086 87.5468 124.063 87.5631 124.037 87.5737C124.011 87.5852 123.982 87.5909 123.954 87.59V87.59Z" fill="#3B7CD3"/>
<path d="M121.753 85.6327C120.047 85.5223 118.372 85.1182 116.804 84.4356C116.756 84.4155 116.717 84.3771 116.697 84.3281C116.677 84.2801 116.677 84.2254 116.696 84.1764C116.706 84.1524 116.72 84.1303 116.738 84.1121C116.757 84.0929 116.779 84.0785 116.803 84.0679C116.828 84.0583 116.854 84.0526 116.88 84.0535C116.905 84.0535 116.931 84.0583 116.955 84.0689C118.481 84.7217 120.105 85.1143 121.76 85.2295C121.814 85.2295 121.864 85.2507 121.901 85.2881C121.939 85.3255 121.96 85.3764 121.96 85.4292C121.96 85.482 121.939 85.5329 121.901 85.5704C121.864 85.6068 121.814 85.628 121.76 85.628L121.753 85.6327V85.6327Z" fill="#3B7CD3"/>
<path d="M134.102 96.6171C134.078 96.6171 134.054 96.6133 134.031 96.6046C134.008 96.595 133.988 96.5825 133.97 96.5653L132.375 95.1531C132.34 95.1214 132.318 95.0772 132.312 95.0302C132.307 94.9822 132.317 94.9342 132.343 94.8939C132.369 94.8536 132.408 94.8238 132.455 94.8104C132.501 94.7969 132.551 94.8017 132.595 94.8228C132.755 94.8996 132.909 94.987 133.057 95.0859C133.533 95.4104 133.941 95.826 134.253 96.3099C134.28 96.3502 134.292 96.3982 134.285 96.4462C134.278 96.4942 134.254 96.5384 134.217 96.5691C134.184 96.5969 134.144 96.6133 134.102 96.6171V96.6171Z" fill="#3B7CD3"/>
<path d="M231.265 151.535C231.265 151.535 234.135 149.968 237.075 150.379C240.013 150.79 243.889 155.786 244.185 164.958C244.479 174.129 244.475 190.108 240.089 193.405C234.77 197.349 218.46 199.574 207.706 196.46C196.951 193.346 202.478 187.125 202.478 187.125L227.923 174.42L231.265 151.535Z" fill="#5E96FC"/>
<path d="M219.462 198.111C215.307 198.111 211.167 197.66 207.63 196.635C203.83 195.534 201.601 193.923 200.999 191.85C200.269 189.318 202.228 187.065 202.311 186.985L202.371 186.937L227.727 174.264L231.089 151.384L231.177 151.34C231.297 151.272 234.14 149.744 237.107 150.144C239.949 150.542 244.085 155.383 244.392 164.897C244.922 181.427 243.511 191.053 240.197 193.512C236.592 196.217 227.995 198.111 219.462 198.111V198.111ZM202.582 187.268C202.367 187.528 200.752 189.557 201.386 191.734C201.948 193.672 204.089 195.195 207.766 196.252C218.473 199.354 234.698 197.145 239.973 193.229C242.179 191.594 244.663 185.362 244.009 164.945C243.71 155.654 239.771 150.941 237.07 150.562C234.511 150.203 231.967 151.399 231.488 151.651L228.127 174.536L228.035 174.584L202.582 187.268V187.268Z" fill="#3B7CD3"/>
<path d="M235.623 187.475C230.606 192.343 219.482 191.861 212.73 190.633C205.979 189.405 202.605 188.799 202.458 187.107C202.311 185.417 205.026 180.153 206.362 178.303C208.723 175.041 211.996 174.048 213.464 173.606C214.931 173.163 213.807 171.819 213.807 171.819C213.807 171.819 219.632 170.962 222.731 168.027C223.214 167.58 223.627 167.062 223.955 166.492C224.468 165.573 224.903 164.612 225.255 163.621C226.34 160.599 226.543 157.731 226.296 156.375V156.324C226.286 156.254 226.272 156.187 226.252 156.12V156.072C225.814 154.533 224.466 152.392 224.466 152.392C224.466 152.392 227.053 150.665 230.143 151.112C233.461 151.586 236.576 158.182 238.119 165.754C239.794 174.096 239.582 183.63 235.623 187.475V187.475Z" fill="#92C1FF"/>
<path d="M221.623 191.658C218.629 191.648 215.64 191.37 212.695 190.829L212.296 190.753C205.517 189.501 202.427 188.931 202.271 187.124C202.116 185.318 204.959 179.923 206.215 178.188C208.608 174.858 211.985 173.849 213.421 173.403C213.548 173.383 213.668 173.331 213.771 173.252C213.874 173.173 213.954 173.071 214.007 172.953C214.023 172.768 214 172.583 213.943 172.407C213.884 172.232 213.791 172.069 213.668 171.932C213.645 171.905 213.63 171.873 213.623 171.839C213.616 171.804 213.62 171.769 213.632 171.736C213.645 171.703 213.667 171.674 213.695 171.652C213.723 171.629 213.757 171.614 213.791 171.609C213.847 171.609 219.59 170.727 222.608 167.868C223.081 167.437 223.485 166.936 223.804 166.381C224.313 165.472 224.744 164.523 225.092 163.542C226.153 160.579 226.372 157.759 226.125 156.4V156.36C226.115 156.294 226.101 156.229 226.081 156.165V156.1C225.659 154.621 224.335 152.512 224.319 152.484C224.292 152.44 224.282 152.387 224.294 152.336C224.305 152.285 224.335 152.241 224.378 152.213C226.116 151.136 228.165 150.674 230.197 150.901C233.845 151.423 236.916 158.709 238.339 165.702C239.862 173.192 240.118 183.428 235.807 187.607C232.693 190.614 227.194 191.658 221.623 191.658V191.658ZM214.17 171.964C214.28 172.125 214.357 172.305 214.396 172.497C214.434 172.688 214.435 172.884 214.398 173.076C214.329 173.259 214.214 173.421 214.065 173.548C213.915 173.674 213.736 173.76 213.544 173.797C212.145 174.197 208.875 175.202 206.546 178.42C205.187 180.298 202.539 185.497 202.678 187.093C202.806 188.596 206.207 189.222 212.376 190.362L212.775 190.438C220.351 191.834 230.827 191.862 235.504 187.332C239.695 183.264 239.424 173.188 237.92 165.798C236.265 157.688 233.056 151.734 230.112 151.312C227.565 150.945 225.328 152.11 224.733 152.46C225.434 153.579 226.006 154.774 226.44 156.021V156.081C226.461 156.153 226.477 156.226 226.488 156.3V156.34C226.748 157.755 226.528 160.659 225.439 163.693C225.083 164.694 224.644 165.664 224.128 166.592C223.791 167.185 223.366 167.722 222.867 168.187C220.151 170.759 215.415 171.74 214.17 171.964V171.964Z" fill="#3B7CD3"/>
<path d="M238.095 165.756L232.911 164.695C228.341 163.749 226.655 157.804 226.316 156.392V156.341L226.271 156.137V156.089C225.833 154.55 224.485 152.408 224.485 152.408C224.485 152.408 227.073 150.682 230.163 151.129C233.437 151.587 236.551 158.183 238.095 165.756V165.756Z" fill="#3B7CD3"/>
<path d="M238.35 166.01L232.851 164.873C228.118 163.897 226.399 157.66 226.101 156.42L226.072 156.289C226.06 156.246 226.051 156.201 226.044 156.157V156.113C225.622 154.634 224.298 152.524 224.281 152.496L224.179 152.332L224.342 152.225C226.08 151.148 228.128 150.686 230.16 150.913C233.809 151.436 236.879 158.72 238.302 165.715L238.35 166.01V166.01ZM224.712 152.452C225.413 153.571 225.986 154.766 226.419 156.013V156.073C226.424 156.113 226.433 156.153 226.443 156.193L226.475 156.332C226.762 157.528 228.421 163.549 232.915 164.479L237.82 165.491C236.153 157.517 232.983 151.723 230.076 151.303C227.544 150.94 225.335 152.101 224.712 152.456V152.452V152.452Z" fill="#3B7CD3"/>
<path d="M226.009 171.848C224.366 171.681 223.309 169.619 222.731 168.028C223.214 167.581 223.627 167.063 223.955 166.493C224.468 165.574 224.903 164.613 225.255 163.621C226.133 166.002 228.19 172.072 226.009 171.848Z" fill="#3B7CD3"/>
<path d="M226.132 172.051C226.088 172.055 226.044 172.055 226.001 172.051C224.274 171.875 223.174 169.807 222.559 168.103L222.511 167.98L222.607 167.888C223.081 167.457 223.485 166.955 223.803 166.4C224.312 165.492 224.743 164.543 225.092 163.562L225.275 163.047L225.466 163.562C226.403 166.082 227.831 170.488 226.886 171.712C226.796 171.825 226.681 171.914 226.55 171.972C226.418 172.031 226.275 172.059 226.132 172.051V172.051ZM222.978 168.063C223.564 169.659 224.573 171.481 226.04 171.653C226.13 171.669 226.224 171.661 226.31 171.63C226.396 171.598 226.473 171.544 226.531 171.473C227.101 170.74 226.619 168.04 225.239 164.215C224.919 165.038 224.544 165.837 224.114 166.608C223.802 167.15 223.416 167.646 222.966 168.079L222.978 168.063Z" fill="#3B7CD3"/>
<path d="M227.297 179.675C227.297 179.651 226.818 177.37 221.874 175.029C216.929 172.689 213.563 173.781 213.531 173.793L213.4 173.419C213.54 173.371 216.897 172.222 222.041 174.667C227.185 177.111 227.671 179.508 227.692 179.607L227.297 179.675V179.675Z" fill="#3B7CD3"/>
<path d="M205.134 194.27H205.027C204.854 194.225 204.698 194.131 204.576 194C204.455 193.87 204.374 193.707 204.34 193.533C204.221 193.097 204.204 192.64 204.288 192.197C204.468 191.133 205.086 190.378 205.672 190.482C205.844 190.529 205.998 190.623 206.119 190.753C206.24 190.883 206.322 191.045 206.354 191.22C206.476 191.655 206.496 192.112 206.41 192.555C206.238 193.549 205.692 194.27 205.134 194.27V194.27ZM205.56 190.865C205.249 190.865 204.823 191.411 204.679 192.253C204.606 192.635 204.621 193.03 204.723 193.405C204.807 193.672 204.942 193.844 205.09 193.868C205.409 193.92 205.868 193.366 206.016 192.484C206.092 192.102 206.078 191.708 205.975 191.331C205.892 191.064 205.756 190.893 205.605 190.869L205.56 190.865Z" fill="#3B7CD3"/>
<path d="M219.413 196.364H219.297C219.126 196.317 218.971 196.222 218.851 196.09C218.73 195.96 218.649 195.797 218.616 195.623C218.494 195.188 218.475 194.73 218.56 194.286C218.743 193.225 219.358 192.476 219.948 192.576C220.119 192.623 220.275 192.716 220.395 192.846C220.516 192.977 220.597 193.139 220.63 193.314C220.75 193.749 220.769 194.206 220.685 194.649C220.617 195.097 220.447 195.523 220.187 195.893C220.104 196.027 219.99 196.138 219.856 196.221C219.722 196.302 219.57 196.351 219.413 196.364V196.364ZM219.836 192.959C219.521 192.959 219.099 193.501 218.955 194.346C218.881 194.728 218.894 195.122 218.995 195.499C219.078 195.766 219.214 195.937 219.365 195.961C219.517 195.985 219.701 195.873 219.868 195.647C220.089 195.327 220.233 194.961 220.291 194.577C220.366 194.195 220.351 193.801 220.251 193.425C220.167 193.158 220.032 192.986 219.88 192.962L219.836 192.959Z" fill="#3B7CD3"/>
<path d="M234.338 194.656C234.177 194.645 234.019 194.596 233.881 194.512C233.742 194.428 233.626 194.312 233.54 194.174C233.292 193.799 233.125 193.374 233.051 192.93C232.978 192.485 232.999 192.029 233.114 191.594C233.147 191.419 233.229 191.258 233.35 191.127C233.472 190.997 233.628 190.905 233.8 190.86C234.39 190.756 234.997 191.514 235.175 192.579C235.26 193.023 235.24 193.48 235.116 193.915C235.082 194.09 235 194.251 234.879 194.38C234.757 194.51 234.602 194.603 234.43 194.648C234.4 194.654 234.369 194.657 234.338 194.656V194.656ZM233.94 191.247H233.896C233.744 191.275 233.608 191.443 233.525 191.71C233.428 192.086 233.412 192.478 233.475 192.861C233.539 193.245 233.682 193.61 233.896 193.935C234.064 194.162 234.251 194.278 234.398 194.25C234.545 194.222 234.686 194.058 234.769 193.787C234.871 193.413 234.887 193.02 234.817 192.639C234.662 191.81 234.238 191.247 233.927 191.247H233.94Z" fill="#3B7CD3"/>
<path d="M241.721 183.527C241.462 183.527 241.204 183.492 240.955 183.423C239.99 183.173 239.36 182.571 239.512 182.025C239.662 181.478 240.492 181.255 241.458 181.51C242.423 181.766 243.052 182.364 242.901 182.91C242.797 183.304 242.33 183.527 241.721 183.527V183.527ZM240.703 181.805C240.265 181.805 239.946 181.94 239.906 182.124C239.834 182.395 240.305 182.842 241.062 183.038C241.821 183.232 242.45 183.077 242.522 182.806C242.593 182.535 242.123 182.088 241.362 181.892C241.147 181.836 240.926 181.807 240.703 181.805V181.805Z" fill="#3B7CD3"/>
<path d="M241.932 171.473H241.764C240.843 171.421 240.169 170.986 240.193 170.456C240.213 170.304 240.278 170.16 240.378 170.044C240.479 169.926 240.612 169.841 240.759 169.798C241.11 169.654 241.489 169.593 241.867 169.623C242.793 169.675 243.463 170.109 243.439 170.636C243.419 170.789 243.354 170.934 243.254 171.051C243.154 171.168 243.021 171.254 242.872 171.297C242.574 171.418 242.254 171.479 241.932 171.473V171.473ZM241.704 170.014C241.431 170.007 241.16 170.056 240.906 170.157C240.711 170.245 240.588 170.364 240.58 170.476C240.58 170.723 241.074 171.03 241.776 171.07C242.091 171.094 242.407 171.047 242.701 170.931C242.9 170.843 243.02 170.723 243.028 170.612C243.028 170.364 242.534 170.057 241.832 170.018H241.693L241.704 170.014Z" fill="#3B7CD3"/>
<path d="M240.684 161.129H240.516C239.591 161.077 238.921 160.643 238.945 160.116C238.969 159.59 239.695 159.231 240.619 159.283C241.541 159.335 242.215 159.77 242.187 160.296C242.167 160.448 242.103 160.592 242.004 160.71C241.904 160.827 241.772 160.914 241.624 160.958C241.326 161.078 241.005 161.136 240.684 161.129V161.129ZM240.452 159.674C239.822 159.674 239.356 159.905 239.343 160.132C239.332 160.36 239.838 160.69 240.54 160.727C240.856 160.75 241.173 160.703 241.469 160.587C241.665 160.499 241.788 160.383 241.796 160.272C241.796 160.021 241.302 159.714 240.6 159.677L240.452 159.674V159.674Z" fill="#3B7CD3"/>
<path d="M236.748 153.186H236.581C235.655 153.134 234.985 152.699 235.009 152.169C235.031 152.016 235.095 151.873 235.195 151.756C235.295 151.639 235.428 151.555 235.576 151.511C235.926 151.367 236.306 151.307 236.685 151.336C237.609 151.388 238.279 151.822 238.255 152.349C238.235 152.502 238.171 152.646 238.071 152.763C237.97 152.881 237.838 152.967 237.689 153.01C237.39 153.132 237.071 153.191 236.748 153.186ZM236.52 151.726C236.248 151.72 235.977 151.769 235.724 151.87C235.524 151.958 235.404 152.077 235.396 152.189C235.396 152.436 235.891 152.743 236.592 152.783C236.907 152.807 237.224 152.759 237.518 152.643C237.717 152.556 237.837 152.436 237.844 152.325C237.844 152.077 237.35 151.771 236.648 151.73L236.52 151.726Z" fill="#3B7CD3"/>
<path d="M11.4129 141.638C11.4129 141.638 8.82853 141.403 7.09858 143.125C6.05697 144.158 5.27072 145.418 4.80127 146.806L67.2512 229.88C67.2512 229.88 69.847 230.514 75.155 224.935C75.8788 224.148 76.5451 223.31 77.1489 222.427L85.7257 214.659L24.2444 138.776L11.4119 141.638H11.4129Z" fill="#5E96FC"/>
<path d="M67.5215 230.091C67.414 230.093 67.3075 230.084 67.2028 230.063L67.1308 230.043L67.0915 229.987L4.58203 146.85L4.60987 146.754C5.08604 145.331 5.88861 144.039 6.95423 142.982C8.64865 141.303 11.0736 141.411 11.3962 141.439L24.3199 138.556L24.3996 138.652L86.0037 214.683L77.307 222.559C76.7031 223.443 76.0369 224.282 75.313 225.071C70.9507 229.641 68.3788 230.091 67.5215 230.091V230.091ZM67.3583 229.693C67.7846 229.732 70.3248 229.721 75.0106 224.792C75.7345 224.014 76.4007 223.186 77.0036 222.311L77.0362 222.276L85.4738 214.635L24.1644 138.998L11.4241 141.838H11.3924C11.3684 141.838 8.88002 141.634 7.23743 143.265C6.25054 144.256 5.495 145.453 5.0246 146.77L67.3583 229.693Z" fill="#3B7CD3"/>
<path d="M93.2137 214.487C86.0597 219.642 77.3793 222.358 77.1594 222.423C77.2554 222.299 79.9828 218.474 63.8133 195.765C61.6389 192.713 59.5489 189.822 57.5444 187.092C44.3615 169.148 34.5559 157.887 25.5126 150.278C14.6625 141.159 11.4119 141.637 11.4119 141.637C11.4119 141.637 18.8645 130.073 31.7248 131.545C44.5852 133.016 62.8955 160.1 67.326 160.865C71.7565 161.632 72.5101 162.588 71.6288 163.382C71.2822 163.685 72.2624 164.542 73.9059 165.806C76.1466 167.54 79.6199 170.049 82.5825 172.984C83.0424 173.444 83.4869 173.91 83.915 174.383C87.4402 178.303 93.0265 187.942 96.2762 193.747C97.8314 196.539 98.8481 198.449 98.8481 198.449C98.8481 198.449 100.69 196.814 101.807 199.118C102.923 201.423 100.464 209.267 93.2137 214.487V214.487Z" fill="#92C1FF"/>
<path d="M77.1593 222.621C77.1276 222.622 77.0959 222.615 77.0671 222.6C77.0393 222.586 77.0143 222.564 76.9961 222.538C76.9721 222.503 76.9586 222.462 76.9586 222.42C76.9586 222.378 76.9721 222.337 76.9961 222.303C77.0239 222.266 79.6399 218.351 63.6413 195.881C61.5475 192.938 59.4384 190.023 57.3772 187.211C44.2538 169.347 34.3849 158.007 25.3723 150.43C14.8015 141.542 11.4559 141.837 11.4156 141.832C11.3781 141.838 11.3397 141.832 11.3061 141.816C11.2716 141.801 11.2428 141.775 11.2226 141.743C11.2024 141.711 11.1909 141.675 11.1909 141.637C11.1909 141.599 11.2015 141.562 11.2207 141.53C11.2965 141.41 18.8931 129.858 31.7285 131.345C39.999 132.306 50.4421 143.679 58.0703 151.986C62.2416 156.503 65.8301 160.403 67.3575 160.666C70.3441 161.181 71.9032 161.81 72.1422 162.597C72.1826 162.77 72.1691 162.954 72.1038 163.12C72.0386 163.287 71.9234 163.429 71.7755 163.53C71.7035 163.848 73.4661 165.204 74.044 165.647L75.2402 166.572C77.8726 168.501 80.3753 170.6 82.7331 172.856C83.1997 173.323 83.6509 173.797 84.0695 174.26C87.6378 178.224 93.3605 188.12 96.4546 193.664C97.7026 195.9 98.6118 197.591 98.9151 198.157C99.3826 197.806 99.9702 197.652 100.55 197.731C101.14 197.846 101.622 198.289 101.989 199.043C103.15 201.436 100.678 209.355 93.3326 214.643C86.1143 219.826 77.3062 222.582 77.2188 222.618C77.1986 222.623 77.1785 222.625 77.1583 222.621H77.1593ZM11.7631 141.45C12.9199 141.586 16.7475 142.647 25.6199 150.123C34.6518 157.7 44.5409 169.088 57.6844 186.976C59.7504 189.768 61.8595 192.706 63.9572 195.65C77.5836 214.79 77.8783 220.584 77.4905 222.099C79.3011 221.501 86.794 218.85 93.0782 214.327C100.392 209.059 102.593 201.253 101.608 199.226C101.514 198.966 101.36 198.732 101.16 198.54C100.959 198.35 100.716 198.209 100.451 198.13C99.6975 197.983 98.9679 198.612 98.9602 198.616C98.9372 198.636 98.9103 198.651 98.8815 198.66C98.8527 198.668 98.822 198.669 98.7922 198.664C98.7625 198.659 98.7346 198.647 98.7106 198.629C98.6857 198.611 98.6665 198.588 98.653 198.561C98.653 198.561 97.6201 196.619 96.085 193.863C92.9985 188.333 87.2922 178.467 83.7469 174.531C83.3485 174.073 82.8896 173.606 82.4269 173.143C80.0912 170.898 77.6114 168.808 75.0021 166.887L73.8059 165.966C71.9838 164.563 71.3934 163.972 71.3771 163.549C71.3742 163.489 71.3848 163.43 71.4088 163.374C71.4318 163.319 71.4683 163.27 71.5134 163.23C71.7246 163.043 71.8081 162.867 71.7649 162.708C71.6853 162.429 71.091 161.707 67.3105 161.061C65.6401 160.774 62.1859 157.014 57.8198 152.256C50.2433 143.998 39.8435 132.685 31.7208 131.745C20.2602 130.421 13.0553 139.668 11.7832 141.45H11.7631V141.45Z" fill="#3B7CD3"/>
<path d="M67.251 229.881C70.3154 227.635 58.9085 206.863 41.7741 183.486C24.6398 160.109 8.26483 142.978 5.20046 145.225C2.1361 147.47 13.543 168.242 30.6773 191.619C47.8117 214.997 64.1866 232.126 67.25 229.881H67.251Z" fill="#92C1FF"/>
<path d="M66.5777 230.274C64.0173 230.274 58.5107 225.09 54.0965 220.496C47.1825 213.263 38.8083 203.047 30.5176 191.734C22.2279 180.421 15.0057 169.359 10.1807 160.59C6.73902 154.323 3.05832 146.539 5.07243 145.063C7.08654 143.588 13.4025 149.449 18.3427 154.606C25.2577 161.839 33.6309 172.055 41.9255 183.368C50.22 194.681 57.4335 205.743 62.2624 214.512C65.7079 220.78 69.3886 228.563 67.3707 230.039C67.1393 230.202 66.8599 230.285 66.5767 230.274H66.5777ZM5.88652 145.219C5.68396 145.211 5.48428 145.269 5.31628 145.382C3.96842 146.371 5.91821 151.986 10.5397 160.399C15.3244 169.172 22.5543 180.198 30.8363 191.503C39.1184 202.807 47.4811 213.003 54.3836 220.213C61.0154 227.156 65.7838 230.705 67.1441 229.716C68.5035 228.727 66.5422 223.112 61.9245 214.699C57.1158 205.926 49.9061 194.9 41.624 183.595C33.342 172.29 24.9793 162.094 18.0969 154.885C12.1679 148.712 7.74511 145.219 5.88748 145.219H5.88652Z" fill="#3B7CD3"/>
<path d="M9.81728 156.507C9.76448 156.52 9.7088 156.51 9.66272 156.481C9.61664 156.453 9.584 156.407 9.57152 156.354C9.55904 156.301 9.56864 156.245 9.59744 156.199C9.62624 156.153 9.67232 156.121 9.72512 156.109L15.3681 153.162C15.3911 153.15 15.417 153.143 15.443 153.141C15.4689 153.138 15.4958 153.141 15.5207 153.149C15.5457 153.157 15.5687 153.169 15.5889 153.187C15.6091 153.204 15.6254 153.224 15.6378 153.247C15.6503 153.271 15.6571 153.296 15.6599 153.322C15.6619 153.349 15.6599 153.375 15.6513 153.4C15.6436 153.425 15.6302 153.448 15.6138 153.468C15.5966 153.488 15.5764 153.504 15.5524 153.517L9.9104 156.463C9.88448 156.486 9.8528 156.502 9.81824 156.507H9.81728Z" fill="#3B7CD3"/>
<path d="M15.4606 166.664C15.425 166.662 15.3905 166.653 15.3598 166.634C15.329 166.616 15.3031 166.59 15.2849 166.561C15.2609 166.513 15.2551 166.459 15.2695 166.409C15.2849 166.358 15.3185 166.315 15.3646 166.289L23.132 162.014C23.1551 162.001 23.18 161.994 23.206 161.991C23.2319 161.988 23.2588 161.99 23.2837 161.998C23.3087 162.005 23.3327 162.018 23.3528 162.034C23.373 162.05 23.3903 162.071 23.4028 162.094C23.4162 162.117 23.4248 162.142 23.4277 162.168C23.4306 162.193 23.4296 162.22 23.422 162.245C23.4152 162.271 23.4028 162.294 23.3864 162.315C23.3701 162.336 23.35 162.353 23.3269 162.365L15.5556 166.64C15.5258 166.656 15.4932 166.664 15.4596 166.664H15.4606Z" fill="#3B7CD3"/>
<path d="M21.3024 176.294C21.2688 176.294 21.2362 176.285 21.2074 176.269C21.1786 176.253 21.1536 176.23 21.1354 176.202C21.1066 176.158 21.097 176.104 21.1085 176.052C21.12 176 21.1508 175.955 21.1949 175.926L29.9675 170.236C29.9896 170.222 30.0136 170.211 30.0395 170.207C30.0654 170.202 30.0923 170.203 30.1173 170.208C30.1432 170.213 30.1672 170.224 30.1883 170.239C30.2094 170.255 30.2277 170.274 30.2421 170.296C30.2709 170.34 30.2815 170.394 30.2709 170.446C30.2603 170.497 30.2296 170.543 30.1864 170.571L21.41 176.258C21.3783 176.28 21.3408 176.292 21.3024 176.294V176.294Z" fill="#3B7CD3"/>
<path d="M28.9577 186.838C28.9251 186.838 28.8944 186.828 28.8656 186.814C28.8368 186.799 28.8128 186.777 28.7945 186.751C28.7657 186.706 28.7542 186.654 28.7638 186.602C28.7734 186.551 28.8032 186.505 28.8464 186.475L37.5192 180.465C37.5633 180.437 37.6171 180.425 37.6689 180.435C37.7208 180.444 37.7668 180.474 37.7976 180.517C37.8264 180.561 37.8379 180.614 37.8283 180.666C37.8187 180.717 37.7889 180.763 37.7457 180.793L29.0806 186.802C29.0441 186.827 29.0009 186.84 28.9568 186.838H28.9577Z" fill="#3B7CD3"/>
<path d="M35.4777 196.463C35.4355 196.463 35.3942 196.449 35.3606 196.424C35.327 196.398 35.302 196.364 35.2896 196.323C35.2771 196.282 35.278 196.239 35.2915 196.199C35.3049 196.159 35.3308 196.124 35.3664 196.1L44.2983 190.144C44.3434 190.114 44.3972 190.103 44.4491 190.114C44.5009 190.124 44.547 190.155 44.5777 190.199C44.6065 190.242 44.6171 190.296 44.6065 190.348C44.5959 190.4 44.5652 190.445 44.522 190.474L35.5824 196.432C35.5516 196.453 35.5161 196.463 35.4787 196.463H35.4777Z" fill="#3B7CD3"/>
<path d="M41.9057 204.211C41.8721 204.211 41.8395 204.204 41.8097 204.187C41.7799 204.171 41.7559 204.148 41.7387 204.119C41.7099 204.075 41.7003 204.021 41.7118 203.97C41.7233 203.918 41.754 203.873 41.7982 203.844L50.5708 198.333C50.5929 198.319 50.6178 198.309 50.6438 198.304C50.6697 198.3 50.6966 198.301 50.7225 198.306C50.7484 198.312 50.7724 198.324 50.7935 198.339C50.8146 198.354 50.8329 198.375 50.8463 198.398C50.8732 198.443 50.8818 198.497 50.8703 198.547C50.8588 198.599 50.8271 198.643 50.783 198.672L42.0257 204.171C41.9911 204.196 41.9489 204.21 41.9057 204.211V204.211Z" fill="#3B7CD3"/>
<path d="M47.2176 211.37C47.1812 211.369 47.1456 211.359 47.1149 211.34C47.0842 211.321 47.0592 211.294 47.042 211.261C47.0295 211.238 47.0218 211.213 47.0189 211.187C47.016 211.161 47.0189 211.135 47.0266 211.111C47.0343 211.086 47.0468 211.063 47.064 211.042C47.0813 211.022 47.1015 211.006 47.1245 210.994L54.8843 206.648C54.9314 206.623 54.9861 206.619 55.037 206.635C55.0878 206.651 55.1291 206.687 55.1541 206.734C55.1781 206.781 55.1829 206.836 55.1666 206.886C55.1502 206.936 55.1147 206.979 55.0677 207.003L47.3079 211.35C47.2791 211.362 47.2474 211.369 47.2167 211.37H47.2176Z" fill="#3B7CD3"/>
<path d="M53.2541 218.053C53.2205 218.053 53.1879 218.044 53.159 218.028C53.1302 218.011 53.1053 217.988 53.087 217.961C53.0726 217.939 53.063 217.914 53.0582 217.888C53.0534 217.863 53.0544 217.836 53.0602 217.81C53.0659 217.784 53.0775 217.76 53.0928 217.739C53.1082 217.718 53.1283 217.699 53.1504 217.686L58.7329 214.153C58.778 214.125 58.8318 214.116 58.8836 214.128C58.9355 214.14 58.9796 214.171 59.0084 214.216C59.0363 214.262 59.0459 214.316 59.0334 214.367C59.0219 214.419 58.9892 214.464 58.9441 214.492L53.3616 218.025C53.329 218.044 53.2915 218.054 53.2541 218.053V218.053Z" fill="#3B7CD3"/>
<path d="M58.8525 223.945C58.817 223.945 58.7814 223.936 58.7507 223.918C58.72 223.899 58.6941 223.873 58.6768 223.842C58.6509 223.796 58.6442 223.742 58.6586 223.691C58.673 223.64 58.7066 223.597 58.7526 223.571L63.0391 221.198C63.0852 221.172 63.1399 221.166 63.1898 221.18C63.2407 221.194 63.2839 221.228 63.3098 221.274C63.3233 221.297 63.3319 221.322 63.3348 221.348C63.3377 221.374 63.3367 221.4 63.329 221.425C63.3223 221.451 63.3098 221.474 63.2935 221.496C63.2772 221.516 63.257 221.533 63.234 221.545L58.9629 223.918C58.9302 223.94 58.8909 223.949 58.8515 223.945H58.8525Z" fill="#3B7CD3"/>
<path d="M50.0844 191.1C49.8914 191.115 49.6975 191.088 49.517 191.018C49.3366 190.949 49.1734 190.841 49.039 190.702C48.6924 190.303 48.6885 189.645 49.039 188.883C49.4383 188.073 50.0086 187.359 50.7094 186.79C51.3881 186.191 52.1897 185.746 53.0585 185.49C53.8563 185.279 54.5024 185.386 54.849 185.797C55.1955 186.208 55.1994 186.854 54.849 187.615C54.0099 189.234 52.5651 190.456 50.8294 191.013C50.5855 191.072 50.335 191.102 50.0835 191.1H50.0844ZM53.7968 185.765C53.5798 185.769 53.3638 185.8 53.1545 185.856C51.5331 186.387 50.1843 187.533 49.398 189.047C49.1225 189.649 49.1033 190.155 49.3423 190.442C49.5814 190.73 50.0882 190.789 50.7295 190.622C52.35 190.09 53.6989 188.945 54.4861 187.432C54.7616 186.826 54.7808 186.319 54.5418 186.036C54.4438 185.94 54.3277 185.866 54.1981 185.819C54.0694 185.773 53.9321 185.754 53.7958 185.765H53.7968Z" fill="#3B7CD3"/>
<path d="M61.2655 207.565C61.0726 207.58 60.8787 207.552 60.6982 207.483C60.5177 207.414 60.3545 207.306 60.221 207.166C59.8697 206.767 59.8697 206.109 60.221 205.347C60.6223 204.538 61.1935 203.824 61.8963 203.254C62.5712 202.651 63.3699 202.201 64.2368 201.938C65.0346 201.727 65.6806 201.835 66.0311 202.245C66.3824 202.656 66.3776 203.302 66.0311 204.064C65.192 205.682 63.7472 206.903 62.0115 207.461C61.7686 207.525 61.518 207.561 61.2655 207.565V207.565ZM64.9741 202.229C64.7581 202.233 64.544 202.264 64.3357 202.321C62.7123 202.849 61.3615 203.995 60.5753 205.511C60.3046 206.113 60.2844 206.619 60.5235 206.907C60.7625 207.194 61.2655 207.254 61.9068 207.086C63.5302 206.557 64.88 205.412 65.6672 203.897C65.9379 203.29 65.9581 202.784 65.719 202.501C65.6221 202.404 65.505 202.329 65.3763 202.283C65.2477 202.236 65.1104 202.218 64.9731 202.229H64.9741Z" fill="#3B7CD3"/>
<path d="M70.8039 225.254C70.6109 225.269 70.417 225.241 70.2365 225.173C70.056 225.103 69.8928 224.995 69.7594 224.855C69.0653 224.034 69.7988 222.315 71.426 220.939C72.1066 220.343 72.9073 219.899 73.7751 219.639C74.5729 219.428 75.2142 219.539 75.5656 219.95C76.2558 220.772 75.5252 222.49 73.8951 223.862C73.2174 224.462 72.4167 224.907 71.5498 225.166C71.306 225.225 71.0554 225.255 70.8039 225.254V225.254ZM74.5124 219.918C74.2974 219.922 74.0833 219.953 73.875 220.011C73.0657 220.253 72.3178 220.67 71.6852 221.231C70.274 222.427 69.5319 223.954 70.0618 224.58C70.3008 224.863 70.8077 224.931 71.4452 224.764C72.2554 224.52 73.0033 224.103 73.6388 223.543C75.0462 222.347 75.7883 220.82 75.2574 220.189C75.1604 220.093 75.0433 220.018 74.9147 219.971C74.786 219.925 74.6488 219.907 74.5115 219.918H74.5124Z" fill="#3B7CD3"/>
<path d="M36.9408 173.997C36.7469 174.013 36.5529 173.985 36.3715 173.916C36.19 173.847 36.0259 173.739 35.8924 173.598C35.542 173.199 35.542 172.541 35.8924 171.784C36.2928 170.972 36.864 170.256 37.5667 169.686C39.1939 168.311 41.0122 167.876 41.7063 168.697C42.4004 169.519 41.666 171.234 40.0359 172.61C38.9549 173.499 37.8029 173.997 36.9417 173.997H36.9408ZM37.8182 169.973C37.1597 170.505 36.623 171.173 36.2476 171.932C35.9769 172.534 35.9568 173.043 36.1958 173.327C36.7257 173.953 38.3654 173.478 39.7843 172.29C41.2042 171.102 41.9338 169.562 41.4029 168.937C40.872 168.311 39.2371 168.785 37.8144 169.973H37.8182Z" fill="#3B7CD3"/>
<path d="M24.168 158.713C24.0028 158.724 23.8377 158.698 23.6831 158.638C23.5295 158.577 23.3913 158.483 23.278 158.362C22.9833 158.015 22.9785 157.469 23.278 156.83C23.6102 156.158 24.0835 155.566 24.6652 155.092C26.0208 153.952 27.5366 153.593 28.1184 154.295C28.7011 154.997 28.0944 156.42 26.7427 157.565C26.0352 158.222 25.1289 158.625 24.167 158.713H24.168ZM27.2102 154.327C26.3472 154.424 25.5389 154.801 24.9091 155.399C24.3724 155.833 23.9356 156.376 23.6294 156.994C23.4105 157.476 23.3942 157.883 23.5814 158.107C23.9606 158.553 25.2125 158.314 26.473 157.25C27.7325 156.185 28.1799 154.988 27.8045 154.542C27.7277 154.465 27.6336 154.405 27.5309 154.368C27.4282 154.331 27.3187 154.317 27.2102 154.327V154.327Z" fill="#3B7CD3"/>
<path d="M11.4371 147.005C11.2959 147.014 11.1558 146.991 11.0252 146.938C10.8946 146.884 10.7775 146.803 10.6834 146.698C10.4281 146.399 10.4242 145.94 10.6834 145.402C10.959 144.843 11.3516 144.351 11.8355 143.959C12.2963 143.55 12.8406 143.247 13.43 143.069C14.0041 142.917 14.4553 142.997 14.7059 143.297C14.9565 143.596 14.9651 144.058 14.7059 144.596C14.127 145.707 13.1344 146.545 11.943 146.929C11.7779 146.974 11.6079 147 11.4361 147.005H11.4371ZM12.0755 144.265C11.6377 144.618 11.2815 145.062 11.031 145.565C10.8591 145.964 10.8438 146.272 10.9868 146.443C11.1299 146.614 11.4495 146.65 11.8604 146.542C12.398 146.386 12.8944 146.113 13.3158 145.745C13.7517 145.39 14.1078 144.947 14.3603 144.445C14.5321 144.046 14.5475 143.739 14.4045 143.567C14.2614 143.396 13.9417 143.356 13.5308 143.464C12.9942 143.623 12.4979 143.895 12.0755 144.261V144.265Z" fill="#3B7CD3"/>
<path d="M93.2138 214.488C86.0598 219.643 77.3793 222.359 77.1595 222.422C77.2555 222.299 79.9829 218.474 63.8133 195.765C61.6389 192.713 59.5489 189.823 57.5444 187.093C61.4479 186.215 70.7034 184.432 78.731 185.147C89.0982 186.063 96.0573 193.521 96.2762 193.76C97.8314 196.551 98.8481 198.461 98.8481 198.461C98.8481 198.461 100.69 196.826 101.807 199.131C102.923 201.436 100.463 209.267 93.2138 214.488Z" fill="#3B7CD3"/>
<path d="M76.6293 222.79L77.0037 222.303C77.0316 222.268 79.6476 218.352 63.6499 195.882C61.5561 192.938 59.447 190.024 57.3858 187.212L57.2063 186.965L57.501 186.902C61.174 186.072 70.5927 184.225 78.7509 184.947C88.8589 185.845 95.6741 192.827 96.4152 193.625L96.4719 193.708C97.7074 195.925 98.6088 197.6 98.9122 198.166C99.3797 197.814 99.9673 197.66 100.547 197.739C101.137 197.855 101.619 198.298 101.986 199.051C103.147 201.444 100.675 209.363 93.3288 214.651C86.1114 219.835 77.3032 222.59 77.2149 222.626L76.6293 222.79V222.79ZM57.8869 187.224C59.8809 189.959 61.9382 192.807 63.9763 195.65C77.6018 214.79 77.8975 220.585 77.5106 222.1C79.3212 221.501 86.8131 218.85 93.0984 214.328C100.411 209.061 102.612 201.253 101.627 199.227C101.534 198.966 101.38 198.732 101.18 198.541C100.979 198.351 100.736 198.21 100.471 198.13C99.7177 197.983 98.988 198.613 98.9794 198.617L98.7884 198.784L98.6722 198.561C98.6722 198.561 97.6402 196.623 96.109 193.879C95.2277 192.946 88.5517 186.215 78.7145 185.342C70.8231 184.632 61.728 186.371 57.8879 187.224H57.8869Z" fill="#3B7CD3"/>
<path d="M82.5785 172.996C77.2235 172.378 66.768 170.791 65.2771 167.736C63.9888 165.092 69.6634 165.307 73.9029 165.805C76.1474 167.54 79.6207 170.049 82.5795 172.996H82.5785Z" fill="#3B7CD3"/>
<path d="M83.1338 173.264L82.5635 173.195C76.6853 172.518 66.6129 170.914 65.1018 167.824C64.9636 167.606 64.8896 167.353 64.8896 167.095C64.8896 166.836 64.9636 166.583 65.1018 166.365C65.8794 165.269 68.8497 165.013 73.9224 165.607H73.9781L74.0213 165.639L75.2184 166.565C77.8498 168.493 80.3526 170.593 82.7104 172.849L83.1338 173.264ZM69.3643 165.687C67.2148 165.687 65.8554 165.991 65.4321 166.589C65.337 166.749 65.29 166.934 65.2948 167.12C65.2996 167.308 65.3572 167.489 65.4599 167.645C66.8798 170.552 77.0914 172.123 82.0288 172.721C79.8025 170.641 77.4562 168.693 75.0024 166.887C74.604 166.572 74.2056 166.278 73.8427 165.998C72.3566 165.814 70.8619 165.712 69.3643 165.695V165.687V165.687Z" fill="#3B7CD3"/>
</g>
<defs>
<filter id="filter0_d_72_799" x="0.499512" y="0" width="248.001" height="238.275" filterUnits="userSpaceOnUse" color-interpolation-filters="sRGB">
<feFlood flood-opacity="0" result="BackgroundImageFix"/>
<feColorMatrix in="SourceAlpha" type="matrix" values="0 0 0 0 0 0 0 0 0 0 0 0 0 0 0 0 0 0 127 0" result="hardAlpha"/>
<feOffset dy="4"/>
<feGaussianBlur stdDeviation="2"/>
<feComposite in2="hardAlpha" operator="out"/>
<feColorMatrix type="matrix" values="0 0 0 0 0 0 0 0 0 0 0 0 0 0 0 0 0 0 0.25 0"/>
<feBlend mode="normal" in2="BackgroundImageFix" result="effect1_dropShadow_72_799"/>
<feBlend mode="normal" in="SourceGraphic" in2="effect1_dropShadow_72_799" result="shape"/>
</filter>
<clipPath id="clip0_72_799">
<rect width="240.001" height="230.275" fill="white" transform="translate(4.49951)"/>
</clipPath>
</defs>
</svg>
